<mxfile host="65bd71144e">
    <diagram id="eoQ2ove4wPI1GpuyLz7c" name="总体架构">
        <mxGraphModel dx="774" dy="660" grid="1" gridSize="10" guides="1" tooltips="1" connect="1" arrows="1" fold="1" page="1" pageScale="1" pageWidth="827" pageHeight="1169" math="0" shadow="0">
            <root>
                <mxCell id="0"/>
                <mxCell id="1" parent="0"/>
                <mxCell id="2" value="" style="rounded=0;whiteSpace=wrap;html=1;" parent="1" vertex="1">
                    <mxGeometry x="180" y="60" width="330" height="470" as="geometry"/>
                </mxCell>
                <mxCell id="3" value="配置服务" style="rounded=1;whiteSpace=wrap;html=1;" parent="1" vertex="1">
                    <mxGeometry x="210" y="320" width="270" height="60" as="geometry"/>
                </mxCell>
                <mxCell id="4" value="clientv3(grpc/http)" style="endArrow=classic;html=1;startArrow=classic;startFill=1;" parent="1" source="3" target="5" edge="1">
                    <mxGeometry width="50" height="50" relative="1" as="geometry">
                        <mxPoint x="397" y="250" as="sourcePoint"/>
                        <mxPoint x="567" y="425" as="targetPoint"/>
                    </mxGeometry>
                </mxCell>
                <mxCell id="5" value="&lt;span style=&quot;color: rgb(0 , 0 , 0) ; font-family: &amp;#34;helvetica&amp;#34; ; font-size: 12px ; font-style: normal ; font-weight: 400 ; letter-spacing: normal ; text-align: center ; text-indent: 0px ; text-transform: none ; word-spacing: 0px ; background-color: rgb(248 , 249 , 250) ; display: inline ; float: none&quot;&gt;etcd&lt;/span&gt;" style="shape=cylinder3;whiteSpace=wrap;html=1;boundedLbl=1;backgroundOutline=1;size=15;" parent="1" vertex="1">
                    <mxGeometry x="315" y="440" width="60" height="80" as="geometry"/>
                </mxCell>
                <mxCell id="6" value="grpc" style="endArrow=classic;html=1;horizontal=1;startArrow=none;startFill=1;" parent="1" source="13" edge="1">
                    <mxGeometry width="50" height="50" relative="1" as="geometry">
                        <mxPoint x="425.5" y="240" as="sourcePoint"/>
                        <mxPoint x="380" y="260" as="targetPoint"/>
                    </mxGeometry>
                </mxCell>
                <mxCell id="7" value="&lt;font style=&quot;font-size: 13px&quot;&gt;配置中心&lt;/font&gt;" style="text;html=1;strokeColor=none;fillColor=none;align=center;verticalAlign=middle;whiteSpace=wrap;rounded=0;" parent="1" vertex="1">
                    <mxGeometry x="317" y="80" width="56" height="20" as="geometry"/>
                </mxCell>
                <mxCell id="8" value="服务端命令行工具&lt;br&gt;cfgsrv" style="rounded=1;whiteSpace=wrap;html=1;" parent="1" vertex="1">
                    <mxGeometry x="210" y="120" width="130" height="60" as="geometry"/>
                </mxCell>
                <mxCell id="9" value="grpc" style="endArrow=classic;html=1;horizontal=1;startArrow=classic;startFill=1;entryX=1;entryY=0.5;entryDx=0;entryDy=0;exitX=0;exitY=0.5;exitDx=0;exitDy=0;" parent="1" source="12" target="3" edge="1">
                    <mxGeometry width="50" height="50" relative="1" as="geometry">
                        <mxPoint x="540" y="380" as="sourcePoint"/>
                        <mxPoint x="435.5" y="300" as="targetPoint"/>
                    </mxGeometry>
                </mxCell>
                <mxCell id="10" value="" style="endArrow=classic;html=1;horizontal=1;startArrow=classic;startFill=1;entryX=0.5;entryY=1;entryDx=0;entryDy=0;" parent="1" target="8" edge="1">
                    <mxGeometry width="50" height="50" relative="1" as="geometry">
                        <mxPoint x="275" y="320" as="sourcePoint"/>
                        <mxPoint x="496" y="330" as="targetPoint"/>
                    </mxGeometry>
                </mxCell>
                <mxCell id="11" value="配置端（网页端）" style="rounded=1;whiteSpace=wrap;html=1;" parent="1" vertex="1">
                    <mxGeometry x="350" y="120" width="120" height="60" as="geometry"/>
                </mxCell>
                <mxCell id="12" value="操控中心" style="rounded=1;whiteSpace=wrap;html=1;" parent="1" vertex="1">
                    <mxGeometry x="580" y="380" width="120" height="60" as="geometry"/>
                </mxCell>
                <mxCell id="13" value="envoy" style="rounded=1;whiteSpace=wrap;html=1;" parent="1" vertex="1">
                    <mxGeometry x="350" y="220" width="120" height="60" as="geometry"/>
                </mxCell>
                <mxCell id="14" value="http" style="endArrow=classic;html=1;horizontal=1;startArrow=classic;startFill=1;entryX=0.5;entryY=0;entryDx=0;entryDy=0;exitX=0.5;exitY=1;exitDx=0;exitDy=0;" parent="1" source="11" target="13" edge="1">
                    <mxGeometry width="50" height="50" relative="1" as="geometry">
                        <mxPoint x="605.7142857142858" y="190" as="sourcePoint"/>
                        <mxPoint x="600" y="230" as="targetPoint"/>
                    </mxGeometry>
                </mxCell>
                <mxCell id="15" value="grpc" style="endArrow=classic;html=1;horizontal=1;startArrow=classic;startFill=1;entryX=0.5;entryY=1;entryDx=0;entryDy=0;" parent="1" target="13" edge="1">
                    <mxGeometry width="50" height="50" relative="1" as="geometry">
                        <mxPoint x="410" y="320" as="sourcePoint"/>
                        <mxPoint x="270" y="190" as="targetPoint"/>
                    </mxGeometry>
                </mxCell>
                <mxCell id="16" value="客户端命令行工具&lt;br&gt;cfgtool" style="rounded=1;whiteSpace=wrap;html=1;" parent="1" vertex="1">
                    <mxGeometry x="580" y="260" width="120" height="60" as="geometry"/>
                </mxCell>
                <mxCell id="17" value="grpc" style="endArrow=classic;html=1;horizontal=1;startArrow=classic;startFill=1;entryX=1;entryY=0.5;entryDx=0;entryDy=0;exitX=0;exitY=0.5;exitDx=0;exitDy=0;" parent="1" source="16" target="3" edge="1">
                    <mxGeometry width="50" height="50" relative="1" as="geometry">
                        <mxPoint x="590" y="420" as="sourcePoint"/>
                        <mxPoint x="490" y="360" as="targetPoint"/>
                    </mxGeometry>
                </mxCell>
            </root>
        </mxGraphModel>
    </diagram>
    <diagram id="ge1nk7_aCU8HFNVLQloT" name="操控中心交互图">
        <mxGraphModel dx="902" dy="849" grid="1" gridSize="10" guides="1" tooltips="1" connect="1" arrows="1" fold="1" page="1" pageScale="1" pageWidth="827" pageHeight="1169" math="0" shadow="0">
            <root>
                <mxCell id="P6rOLtsjkGQMlsvr4FA8-0"/>
                <mxCell id="P6rOLtsjkGQMlsvr4FA8-1" parent="P6rOLtsjkGQMlsvr4FA8-0"/>
                <mxCell id="P6rOLtsjkGQMlsvr4FA8-2" value="配置中心" style="shape=umlLifeline;perimeter=lifelinePerimeter;whiteSpace=wrap;html=1;container=1;collapsible=0;recursiveResize=0;outlineConnect=0;fontSize=10;" parent="P6rOLtsjkGQMlsvr4FA8-1" vertex="1">
                    <mxGeometry x="180" y="130" width="100" height="430" as="geometry"/>
                </mxCell>
                <mxCell id="P6rOLtsjkGQMlsvr4FA8-3" value="" style="html=1;points=[];perimeter=orthogonalPerimeter;fontSize=10;" parent="P6rOLtsjkGQMlsvr4FA8-2" vertex="1">
                    <mxGeometry x="45" y="50" width="10" height="70" as="geometry"/>
                </mxCell>
                <mxCell id="P6rOLtsjkGQMlsvr4FA8-4" value="操控中心" style="shape=umlLifeline;perimeter=lifelinePerimeter;whiteSpace=wrap;html=1;container=1;collapsible=0;recursiveResize=0;outlineConnect=0;fontSize=10;" parent="P6rOLtsjkGQMlsvr4FA8-1" vertex="1">
                    <mxGeometry x="320" y="130" width="100" height="430" as="geometry"/>
                </mxCell>
                <mxCell id="P6rOLtsjkGQMlsvr4FA8-5" value="" style="html=1;points=[];perimeter=orthogonalPerimeter;fontSize=10;" parent="P6rOLtsjkGQMlsvr4FA8-4" vertex="1">
                    <mxGeometry x="45" y="50" width="10" height="70" as="geometry"/>
                </mxCell>
                <mxCell id="P6rOLtsjkGQMlsvr4FA8-6" value="获取工作流程文件" style="rounded=0;orthogonalLoop=1;jettySize=auto;html=1;fontSize=10;entryX=0.952;entryY=0.31;entryDx=0;entryDy=0;entryPerimeter=0;exitX=-0.238;exitY=0.283;exitDx=0;exitDy=0;exitPerimeter=0;" parent="P6rOLtsjkGQMlsvr4FA8-1" source="P6rOLtsjkGQMlsvr4FA8-5" target="P6rOLtsjkGQMlsvr4FA8-3" edge="1">
                    <mxGeometry relative="1" as="geometry">
                        <mxPoint x="360" y="200" as="sourcePoint"/>
                        <mxPoint x="365.0999999999999" y="200" as="targetPoint"/>
                    </mxGeometry>
                </mxCell>
                <mxCell id="P6rOLtsjkGQMlsvr4FA8-7" value="交易系统某集群" style="shape=umlLifeline;perimeter=lifelinePerimeter;whiteSpace=wrap;html=1;container=1;collapsible=0;recursiveResize=0;outlineConnect=0;fontSize=10;" parent="P6rOLtsjkGQMlsvr4FA8-1" vertex="1">
                    <mxGeometry x="460" y="130" width="100" height="430" as="geometry"/>
                </mxCell>
                <mxCell id="P6rOLtsjkGQMlsvr4FA8-8" value="" style="html=1;points=[];perimeter=orthogonalPerimeter;fontSize=10;" parent="P6rOLtsjkGQMlsvr4FA8-7" vertex="1">
                    <mxGeometry x="45" y="320" width="10" height="70" as="geometry"/>
                </mxCell>
                <mxCell id="P6rOLtsjkGQMlsvr4FA8-9" value="获取部署信息" style="endArrow=classic;html=1;fontSize=10;entryX=1;entryY=0.346;entryDx=0;entryDy=0;entryPerimeter=0;exitX=0;exitY=0.346;exitDx=0;exitDy=0;exitPerimeter=0;" parent="P6rOLtsjkGQMlsvr4FA8-1" edge="1">
                    <mxGeometry width="50" height="50" relative="1" as="geometry">
                        <mxPoint x="365" y="289.996" as="sourcePoint"/>
                        <mxPoint x="235" y="289.996" as="targetPoint"/>
                    </mxGeometry>
                </mxCell>
                <mxCell id="P6rOLtsjkGQMlsvr4FA8-10" value="返回工作流程文件" style="edgeStyle=orthogonalEdgeStyle;rounded=0;orthogonalLoop=1;jettySize=auto;html=1;fontSize=10;exitX=1.048;exitY=0.569;exitDx=0;exitDy=0;exitPerimeter=0;entryX=0;entryY=0.562;entryDx=0;entryDy=0;entryPerimeter=0;" parent="P6rOLtsjkGQMlsvr4FA8-1" source="P6rOLtsjkGQMlsvr4FA8-3" target="P6rOLtsjkGQMlsvr4FA8-5" edge="1">
                    <mxGeometry relative="1" as="geometry">
                        <mxPoint x="360" y="220" as="targetPoint"/>
                        <Array as="points"/>
                        <mxPoint x="240" y="220" as="sourcePoint"/>
                    </mxGeometry>
                </mxCell>
                <mxCell id="P6rOLtsjkGQMlsvr4FA8-11" value="" style="html=1;points=[];perimeter=orthogonalPerimeter;fontSize=10;" parent="P6rOLtsjkGQMlsvr4FA8-1" vertex="1">
                    <mxGeometry x="225" y="270" width="10" height="70" as="geometry"/>
                </mxCell>
                <mxCell id="P6rOLtsjkGQMlsvr4FA8-12" value="" style="html=1;points=[];perimeter=orthogonalPerimeter;fontSize=10;" parent="P6rOLtsjkGQMlsvr4FA8-1" vertex="1">
                    <mxGeometry x="365" y="270" width="10" height="70" as="geometry"/>
                </mxCell>
                <mxCell id="P6rOLtsjkGQMlsvr4FA8-13" value="返回部署信息" style="edgeStyle=orthogonalEdgeStyle;rounded=0;orthogonalLoop=1;jettySize=auto;html=1;fontSize=10;" parent="P6rOLtsjkGQMlsvr4FA8-1" edge="1">
                    <mxGeometry relative="1" as="geometry">
                        <mxPoint x="364" y="310" as="targetPoint"/>
                        <Array as="points">
                            <mxPoint x="364" y="310"/>
                        </Array>
                        <mxPoint x="235" y="310" as="sourcePoint"/>
                    </mxGeometry>
                </mxCell>
                <mxCell id="P6rOLtsjkGQMlsvr4FA8-14" value="" style="html=1;points=[];perimeter=orthogonalPerimeter;fontSize=10;" parent="P6rOLtsjkGQMlsvr4FA8-1" vertex="1">
                    <mxGeometry x="225" y="360" width="10" height="70" as="geometry"/>
                </mxCell>
                <mxCell id="P6rOLtsjkGQMlsvr4FA8-15" value="" style="html=1;points=[];perimeter=orthogonalPerimeter;fontSize=10;" parent="P6rOLtsjkGQMlsvr4FA8-1" vertex="1">
                    <mxGeometry x="365" y="360" width="10" height="70" as="geometry"/>
                </mxCell>
                <mxCell id="P6rOLtsjkGQMlsvr4FA8-16" value="获取配置文件" style="endArrow=classic;html=1;fontSize=10;entryX=1;entryY=0.346;entryDx=0;entryDy=0;entryPerimeter=0;exitX=0;exitY=0.346;exitDx=0;exitDy=0;exitPerimeter=0;" parent="P6rOLtsjkGQMlsvr4FA8-1" edge="1">
                    <mxGeometry width="50" height="50" relative="1" as="geometry">
                        <mxPoint x="365" y="379.9960000000001" as="sourcePoint"/>
                        <mxPoint x="235" y="379.9960000000001" as="targetPoint"/>
                    </mxGeometry>
                </mxCell>
                <mxCell id="P6rOLtsjkGQMlsvr4FA8-17" value="返回配置文件" style="edgeStyle=orthogonalEdgeStyle;rounded=0;orthogonalLoop=1;jettySize=auto;html=1;fontSize=10;" parent="P6rOLtsjkGQMlsvr4FA8-1" edge="1">
                    <mxGeometry relative="1" as="geometry">
                        <mxPoint x="364" y="400" as="targetPoint"/>
                        <Array as="points">
                            <mxPoint x="364" y="400"/>
                        </Array>
                        <mxPoint x="235" y="400" as="sourcePoint"/>
                    </mxGeometry>
                </mxCell>
                <mxCell id="P6rOLtsjkGQMlsvr4FA8-18" value="" style="html=1;points=[];perimeter=orthogonalPerimeter;fontSize=10;" parent="P6rOLtsjkGQMlsvr4FA8-1" vertex="1">
                    <mxGeometry x="365" y="450" width="10" height="70" as="geometry"/>
                </mxCell>
                <mxCell id="P6rOLtsjkGQMlsvr4FA8-19" value="启动集群" style="edgeStyle=orthogonalEdgeStyle;rounded=0;orthogonalLoop=1;jettySize=auto;html=1;fontSize=10;" parent="P6rOLtsjkGQMlsvr4FA8-1" edge="1">
                    <mxGeometry relative="1" as="geometry">
                        <mxPoint x="504" y="484.76" as="targetPoint"/>
                        <Array as="points">
                            <mxPoint x="504" y="484.76"/>
                        </Array>
                        <mxPoint x="375" y="484.79999999999995" as="sourcePoint"/>
                    </mxGeometry>
                </mxCell>
            </root>
        </mxGraphModel>
    </diagram>
    <diagram id="qN6X6nAa-0SpQ1tWMJ5d" name="包图">
        <mxGraphModel dx="902" dy="2018" grid="1" gridSize="10" guides="1" tooltips="1" connect="1" arrows="1" fold="1" page="1" pageScale="1" pageWidth="827" pageHeight="1169" math="0" shadow="0">
            <root>
                <mxCell id="xpSz9GhFGafdxFEDkjYd-0"/>
                <mxCell id="xpSz9GhFGafdxFEDkjYd-1" parent="xpSz9GhFGafdxFEDkjYd-0"/>
                <mxCell id="xpSz9GhFGafdxFEDkjYd-2" value="" style="shape=folder;fontStyle=1;spacingTop=10;tabWidth=70;tabHeight=30;tabPosition=left;html=1;" parent="xpSz9GhFGafdxFEDkjYd-1" vertex="1">
                    <mxGeometry x="10" y="80" width="320" height="190" as="geometry"/>
                </mxCell>
                <mxCell id="xpSz9GhFGafdxFEDkjYd-3" value="manage" style="text;align=center;fontStyle=1;verticalAlign=middle;spacingLeft=3;spacingRight=3;strokeColor=none;rotatable=0;points=[[0,0.5],[1,0.5]];portConstraint=eastwest;" parent="xpSz9GhFGafdxFEDkjYd-1" vertex="1">
                    <mxGeometry x="10" y="80" width="70" height="30" as="geometry"/>
                </mxCell>
                <mxCell id="xpSz9GhFGafdxFEDkjYd-4" value="- manage: Manager" style="text;strokeColor=none;fillColor=none;align=left;verticalAlign=top;spacingLeft=4;spacingRight=4;overflow=hidden;rotatable=0;points=[[0,0.5],[1,0.5]];portConstraint=eastwest;" parent="xpSz9GhFGafdxFEDkjYd-1" vertex="1">
                    <mxGeometry x="10" y="110" width="200" height="26" as="geometry"/>
                </mxCell>
                <mxCell id="xpSz9GhFGafdxFEDkjYd-5" value="- get(content.Context, *Cfgreq): (error, []string, []byte)" style="text;strokeColor=none;fillColor=none;align=left;verticalAlign=top;spacingLeft=4;spacingRight=4;overflow=hidden;rotatable=0;points=[[0,0.5],[1,0.5]];portConstraint=eastwest;" parent="xpSz9GhFGafdxFEDkjYd-1" vertex="1">
                    <mxGeometry x="10" y="130" width="330" height="26" as="geometry"/>
                </mxCell>
                <mxCell id="xpSz9GhFGafdxFEDkjYd-6" value="- put(content.Context, *Cfgreq): (error, []string, []byte)" style="text;strokeColor=none;fillColor=none;align=left;verticalAlign=top;spacingLeft=4;spacingRight=4;overflow=hidden;rotatable=0;points=[[0,0.5],[1,0.5]];portConstraint=eastwest;" parent="xpSz9GhFGafdxFEDkjYd-1" vertex="1">
                    <mxGeometry x="10" y="150" width="330" height="26" as="geometry"/>
                </mxCell>
                <mxCell id="xpSz9GhFGafdxFEDkjYd-7" value="- post(content.Context, *Cfgreq): (error, []string, []byte)" style="text;strokeColor=none;fillColor=none;align=left;verticalAlign=top;spacingLeft=4;spacingRight=4;overflow=hidden;rotatable=0;points=[[0,0.5],[1,0.5]];portConstraint=eastwest;" parent="xpSz9GhFGafdxFEDkjYd-1" vertex="1">
                    <mxGeometry x="10" y="167" width="310" height="26" as="geometry"/>
                </mxCell>
                <mxCell id="xpSz9GhFGafdxFEDkjYd-8" value="- delete(content.Context, *Cfgreq): (error, []string, []byte)" style="text;strokeColor=none;fillColor=none;align=left;verticalAlign=top;spacingLeft=4;spacingRight=4;overflow=hidden;rotatable=0;points=[[0,0.5],[1,0.5]];portConstraint=eastwest;" parent="xpSz9GhFGafdxFEDkjYd-1" vertex="1">
                    <mxGeometry x="10" y="190" width="330" height="26" as="geometry"/>
                </mxCell>
                <mxCell id="xpSz9GhFGafdxFEDkjYd-9" value="" style="shape=folder;fontStyle=1;spacingTop=10;tabWidth=70;tabHeight=30;tabPosition=left;html=1;" parent="xpSz9GhFGafdxFEDkjYd-1" vertex="1">
                    <mxGeometry x="440" y="540" width="210" height="80" as="geometry"/>
                </mxCell>
                <mxCell id="xpSz9GhFGafdxFEDkjYd-10" value="" style="shape=folder;fontStyle=1;spacingTop=10;tabWidth=70;tabHeight=30;tabPosition=left;html=1;treeMoving=1;" parent="xpSz9GhFGafdxFEDkjYd-1" vertex="1">
                    <mxGeometry x="15" y="335.5" width="315" height="120" as="geometry"/>
                </mxCell>
                <mxCell id="xpSz9GhFGafdxFEDkjYd-11" value="Global: log" style="text;align=center;fontStyle=1;verticalAlign=middle;spacingLeft=3;spacingRight=3;strokeColor=none;rotatable=0;points=[[0,0.5],[1,0.5]];portConstraint=eastwest;treeMoving=1;" parent="xpSz9GhFGafdxFEDkjYd-1" vertex="1">
                    <mxGeometry x="15" y="335.5" width="70" height="30" as="geometry"/>
                </mxCell>
                <mxCell id="xpSz9GhFGafdxFEDkjYd-12" value="- logRec:  *Logger" style="text;strokeColor=none;fillColor=none;align=left;verticalAlign=top;spacingLeft=4;spacingRight=4;overflow=hidden;rotatable=0;points=[[0,0.5],[1,0.5]];portConstraint=eastwest;treeMoving=1;" parent="xpSz9GhFGafdxFEDkjYd-1" vertex="1">
                    <mxGeometry x="15" y="365.5" width="200" height="26" as="geometry"/>
                </mxCell>
                <mxCell id="xpSz9GhFGafdxFEDkjYd-13" value="+ NewManager(grpcConfigLocation string): (error)" style="text;strokeColor=none;fillColor=none;align=left;verticalAlign=top;spacingLeft=4;spacingRight=4;overflow=hidden;rotatable=0;points=[[0,0.5],[1,0.5]];portConstraint=eastwest;" parent="xpSz9GhFGafdxFEDkjYd-1" vertex="1">
                    <mxGeometry x="10" y="210" width="330" height="26" as="geometry"/>
                </mxCell>
                <mxCell id="xpSz9GhFGafdxFEDkjYd-14" value="+ NewLogger(logConfigLocation string): (error)" style="text;strokeColor=none;fillColor=none;align=left;verticalAlign=top;spacingLeft=4;spacingRight=4;overflow=hidden;rotatable=0;points=[[0,0.5],[1,0.5]];portConstraint=eastwest;treeMoving=1;" parent="xpSz9GhFGafdxFEDkjYd-1" vertex="1">
                    <mxGeometry x="15" y="382.5" width="280" height="26" as="geometry"/>
                </mxCell>
                <mxCell id="xpSz9GhFGafdxFEDkjYd-15" value="+ Zap(): (*zap.Logger)" style="text;strokeColor=none;fillColor=none;align=left;verticalAlign=top;spacingLeft=4;spacingRight=4;overflow=hidden;rotatable=0;points=[[0,0.5],[1,0.5]];portConstraint=eastwest;treeMoving=1;" parent="xpSz9GhFGafdxFEDkjYd-1" vertex="1">
                    <mxGeometry x="15" y="405.5" width="280" height="26" as="geometry"/>
                </mxCell>
                <mxCell id="xpSz9GhFGafdxFEDkjYd-16" value="+ Sugar(): (*zap.SugaredLogger)" style="text;strokeColor=none;fillColor=none;align=left;verticalAlign=top;spacingLeft=4;spacingRight=4;overflow=hidden;rotatable=0;points=[[0,0.5],[1,0.5]];portConstraint=eastwest;treeMoving=1;" parent="xpSz9GhFGafdxFEDkjYd-1" vertex="1">
                    <mxGeometry x="15" y="425.5" width="280" height="26" as="geometry"/>
                </mxCell>
                <mxCell id="xpSz9GhFGafdxFEDkjYd-17" value="" style="shape=folder;fontStyle=1;spacingTop=10;tabWidth=70;tabHeight=30;tabPosition=left;html=1;treeMoving=1;treeFolding=0;" parent="xpSz9GhFGafdxFEDkjYd-1" vertex="1">
                    <mxGeometry x="440" y="245.5" width="360" height="124.5" as="geometry"/>
                </mxCell>
                <mxCell id="xpSz9GhFGafdxFEDkjYd-18" value="repository" style="text;align=center;fontStyle=1;verticalAlign=middle;spacingLeft=3;spacingRight=3;strokeColor=none;rotatable=0;points=[[0,0.5],[1,0.5]];portConstraint=eastwest;treeMoving=1;treeFolding=0;" parent="xpSz9GhFGafdxFEDkjYd-1" vertex="1">
                    <mxGeometry x="440" y="245.5" width="70" height="30" as="geometry"/>
                </mxCell>
                <mxCell id="xpSz9GhFGafdxFEDkjYd-19" value="+ Src:  Storage" style="text;strokeColor=none;fillColor=none;align=left;verticalAlign=top;spacingLeft=4;spacingRight=4;overflow=hidden;rotatable=0;points=[[0,0.5],[1,0.5]];portConstraint=eastwest;treeMoving=1;treeFolding=0;" parent="xpSz9GhFGafdxFEDkjYd-1" vertex="1">
                    <mxGeometry x="440" y="275.5" width="200" height="26" as="geometry"/>
                </mxCell>
                <mxCell id="xpSz9GhFGafdxFEDkjYd-20" value="+ NewStorage(dataSouraceType, config string): error" style="text;strokeColor=none;fillColor=none;align=left;verticalAlign=top;spacingLeft=4;spacingRight=4;overflow=hidden;rotatable=0;points=[[0,0.5],[1,0.5]];portConstraint=eastwest;treeMoving=1;treeFolding=0;" parent="xpSz9GhFGafdxFEDkjYd-1" vertex="1">
                    <mxGeometry x="440" y="301.5" width="320" height="26" as="geometry"/>
                </mxCell>
                <mxCell id="xpSz9GhFGafdxFEDkjYd-21" value="utilFuncs" style="shape=folder;fontStyle=1;spacingTop=10;tabWidth=70;tabHeight=27;tabPosition=left;html=1;" parent="xpSz9GhFGafdxFEDkjYd-1" vertex="1">
                    <mxGeometry x="440" y="-70" width="360" height="100" as="geometry"/>
                </mxCell>
                <mxCell id="xpSz9GhFGafdxFEDkjYd-22" value="util" style="text;align=center;fontStyle=1;verticalAlign=middle;spacingLeft=3;spacingRight=3;strokeColor=none;rotatable=0;points=[[0,0.5],[1,0.5]];portConstraint=eastwest;" parent="xpSz9GhFGafdxFEDkjYd-1" vertex="1">
                    <mxGeometry x="440" y="-70" width="70" height="30" as="geometry"/>
                </mxCell>
                <mxCell id="xpSz9GhFGafdxFEDkjYd-23" value="pb" style="text;align=center;fontStyle=1;verticalAlign=middle;spacingLeft=3;spacingRight=3;strokeColor=none;rotatable=0;points=[[0,0.5],[1,0.5]];portConstraint=eastwest;" parent="xpSz9GhFGafdxFEDkjYd-1" vertex="1">
                    <mxGeometry x="440" y="540" width="70" height="30" as="geometry"/>
                </mxCell>
                <mxCell id="xpSz9GhFGafdxFEDkjYd-24" value="&lt;interface&gt;: ConfigCenterServer" style="text;strokeColor=none;fillColor=none;align=left;verticalAlign=top;spacingLeft=4;spacingRight=4;overflow=hidden;rotatable=0;points=[[0,0.5],[1,0.5]];portConstraint=eastwest;" parent="xpSz9GhFGafdxFEDkjYd-1" vertex="1">
                    <mxGeometry x="450" y="570" width="190" height="26" as="geometry"/>
                </mxCell>
                <mxCell id="xpSz9GhFGafdxFEDkjYd-25" value="&lt;interface&gt;: ConfigCenterClient" style="text;strokeColor=none;fillColor=none;align=left;verticalAlign=top;spacingLeft=4;spacingRight=4;overflow=hidden;rotatable=0;points=[[0,0.5],[1,0.5]];portConstraint=eastwest;" parent="xpSz9GhFGafdxFEDkjYd-1" vertex="1">
                    <mxGeometry x="450" y="590" width="190" height="26" as="geometry"/>
                </mxCell>
                <mxCell id="xpSz9GhFGafdxFEDkjYd-26" value="" style="endArrow=open;endSize=12;dashed=1;html=1;exitX=0;exitY=0;exitDx=320;exitDy=100;exitPerimeter=0;entryX=0;entryY=0;entryDx=0;entryDy=74.5;entryPerimeter=0;" parent="xpSz9GhFGafdxFEDkjYd-1" source="xpSz9GhFGafdxFEDkjYd-2" target="xpSz9GhFGafdxFEDkjYd-29" edge="1">
                    <mxGeometry width="160" relative="1" as="geometry">
                        <mxPoint x="210" y="330" as="sourcePoint"/>
                        <mxPoint x="160" y="320" as="targetPoint"/>
                    </mxGeometry>
                </mxCell>
                <mxCell id="xpSz9GhFGafdxFEDkjYd-27" value="" style="endArrow=open;endSize=12;dashed=1;html=1;exitX=0;exitY=0;exitDx=320;exitDy=100;exitPerimeter=0;entryX=0;entryY=0;entryDx=0;entryDy=63.5;entryPerimeter=0;" parent="xpSz9GhFGafdxFEDkjYd-1" source="xpSz9GhFGafdxFEDkjYd-2" target="xpSz9GhFGafdxFEDkjYd-21" edge="1">
                    <mxGeometry width="160" relative="1" as="geometry">
                        <mxPoint x="320" y="280" as="sourcePoint"/>
                        <mxPoint x="400" as="targetPoint"/>
                    </mxGeometry>
                </mxCell>
                <mxCell id="xpSz9GhFGafdxFEDkjYd-28" value="" style="endArrow=open;endSize=12;dashed=1;html=1;entryX=0;entryY=0.5;entryDx=0;entryDy=0;exitX=0;exitY=0;exitDx=320;exitDy=100;exitPerimeter=0;" parent="xpSz9GhFGafdxFEDkjYd-1" source="xpSz9GhFGafdxFEDkjYd-2" edge="1">
                    <mxGeometry width="160" relative="1" as="geometry">
                        <mxPoint x="380" y="200" as="sourcePoint"/>
                        <mxPoint x="440" y="314.5" as="targetPoint"/>
                    </mxGeometry>
                </mxCell>
                <mxCell id="xpSz9GhFGafdxFEDkjYd-29" value="" style="shape=folder;fontStyle=1;spacingTop=10;tabWidth=70;tabHeight=30;tabPosition=left;html=1;" parent="xpSz9GhFGafdxFEDkjYd-1" vertex="1">
                    <mxGeometry x="440" y="73.5" width="360" height="139" as="geometry"/>
                </mxCell>
                <mxCell id="xpSz9GhFGafdxFEDkjYd-30" value="template" style="text;align=center;fontStyle=1;verticalAlign=middle;spacingLeft=3;spacingRight=3;strokeColor=none;rotatable=0;points=[[0,0.5],[1,0.5]];portConstraint=eastwest;" parent="xpSz9GhFGafdxFEDkjYd-1" vertex="1">
                    <mxGeometry x="440" y="73.5" width="70" height="30" as="geometry"/>
                </mxCell>
                <mxCell id="xpSz9GhFGafdxFEDkjYd-31" value="+ NewTemplateImpl(globalId int, localId int,version ,env , cluster&#10; ,tmp string): ()" style="text;strokeColor=none;fillColor=none;align=left;verticalAlign=top;spacingLeft=4;spacingRight=4;overflow=hidden;rotatable=0;points=[[0,0.5],[1,0.5]];portConstraint=eastwest;treeMoving=1;treeFolding=0;" parent="xpSz9GhFGafdxFEDkjYd-1" vertex="1">
                    <mxGeometry x="444" y="133.5" width="356" height="46.5" as="geometry"/>
                </mxCell>
                <mxCell id="xpSz9GhFGafdxFEDkjYd-32" value="" style="endArrow=open;endSize=12;dashed=1;html=1;exitX=0;exitY=0;exitDx=320;exitDy=100;exitPerimeter=0;entryX=0;entryY=0;entryDx=0;entryDy=55;entryPerimeter=0;" parent="xpSz9GhFGafdxFEDkjYd-1" source="xpSz9GhFGafdxFEDkjYd-2" target="xpSz9GhFGafdxFEDkjYd-9" edge="1">
                    <mxGeometry width="160" relative="1" as="geometry">
                        <mxPoint x="330" y="280" as="sourcePoint"/>
                        <mxPoint x="390" y="520" as="targetPoint"/>
                    </mxGeometry>
                </mxCell>
                <mxCell id="xpSz9GhFGafdxFEDkjYd-33" value="" style="endArrow=open;endSize=12;dashed=1;html=1;exitX=0.5;exitY=0.194;exitDx=0;exitDy=0;exitPerimeter=0;entryX=0.5;entryY=1;entryDx=0;entryDy=0;entryPerimeter=0;" parent="xpSz9GhFGafdxFEDkjYd-1" source="xpSz9GhFGafdxFEDkjYd-29" target="xpSz9GhFGafdxFEDkjYd-21" edge="1">
                    <mxGeometry width="160" relative="1" as="geometry">
                        <mxPoint x="360" y="-32" as="sourcePoint"/>
                        <mxPoint x="590" y="68" as="targetPoint"/>
                    </mxGeometry>
                </mxCell>
                <mxCell id="xpSz9GhFGafdxFEDkjYd-34" value="" style="endArrow=open;endSize=12;dashed=1;html=1;exitX=0.5;exitY=1;exitDx=0;exitDy=0;exitPerimeter=0;" parent="xpSz9GhFGafdxFEDkjYd-1" source="xpSz9GhFGafdxFEDkjYd-29" edge="1">
                    <mxGeometry width="160" relative="1" as="geometry">
                        <mxPoint x="340" y="190" as="sourcePoint"/>
                        <mxPoint x="619" y="273" as="targetPoint"/>
                    </mxGeometry>
                </mxCell>
                <mxCell id="xpSz9GhFGafdxFEDkjYd-35" value="+ GetGrpcInfo(): (*grpcInfoStruct)" style="text;strokeColor=none;fillColor=none;align=left;verticalAlign=top;spacingLeft=4;spacingRight=4;overflow=hidden;rotatable=0;points=[[0,0.5],[1,0.5]];portConstraint=eastwest;" parent="xpSz9GhFGafdxFEDkjYd-1" vertex="1">
                    <mxGeometry x="10" y="230" width="330" height="26" as="geometry"/>
                </mxCell>
                <mxCell id="xpSz9GhFGafdxFEDkjYd-36" value="" style="shape=folder;fontStyle=1;spacingTop=10;tabWidth=70;tabHeight=30;tabPosition=left;html=1;" parent="xpSz9GhFGafdxFEDkjYd-1" vertex="1">
                    <mxGeometry x="440" y="406.5" width="360" height="83.5" as="geometry"/>
                </mxCell>
                <mxCell id="xpSz9GhFGafdxFEDkjYd-37" value="datasource" style="text;align=center;fontStyle=1;verticalAlign=middle;spacingLeft=3;spacingRight=3;strokeColor=none;rotatable=0;points=[[0,0.5],[1,0.5]];portConstraint=eastwest;" parent="xpSz9GhFGafdxFEDkjYd-1" vertex="1">
                    <mxGeometry x="440" y="405.5" width="70" height="30" as="geometry"/>
                </mxCell>
                <mxCell id="xpSz9GhFGafdxFEDkjYd-38" value="" style="endArrow=open;endSize=12;dashed=1;html=1;exitX=0.5;exitY=1;exitDx=0;exitDy=0;exitPerimeter=0;" parent="xpSz9GhFGafdxFEDkjYd-1" source="xpSz9GhFGafdxFEDkjYd-17" edge="1">
                    <mxGeometry width="160" relative="1" as="geometry">
                        <mxPoint x="610" y="390" as="sourcePoint"/>
                        <mxPoint x="618" y="436" as="targetPoint"/>
                    </mxGeometry>
                </mxCell>
                <mxCell id="xpSz9GhFGafdxFEDkjYd-39" value="&lt;struct&gt;: EtcdType" style="text;strokeColor=none;fillColor=none;align=left;verticalAlign=top;spacingLeft=4;spacingRight=4;overflow=hidden;rotatable=0;points=[[0,0.5],[1,0.5]];portConstraint=eastwest;" parent="xpSz9GhFGafdxFEDkjYd-1" vertex="1">
                    <mxGeometry x="450" y="438" width="190" height="26" as="geometry"/>
                </mxCell>
                <mxCell id="xpSz9GhFGafdxFEDkjYd-40" value="&lt;struct&gt;: CompressedFileType" style="text;strokeColor=none;fillColor=none;align=left;verticalAlign=top;spacingLeft=4;spacingRight=4;overflow=hidden;rotatable=0;points=[[0,0.5],[1,0.5]];portConstraint=eastwest;" parent="xpSz9GhFGafdxFEDkjYd-1" vertex="1">
                    <mxGeometry x="450" y="455.5" width="190" height="26" as="geometry"/>
                </mxCell>
            </root>
        </mxGraphModel>
    </diagram>
    <diagram id="6Ubau6sDZ9KMAuzxYlU1" name="处理模块">
        <mxGraphModel dx="902" dy="849" grid="1" gridSize="10" guides="1" tooltips="1" connect="1" arrows="1" fold="1" page="1" pageScale="1" pageWidth="827" pageHeight="1169" math="0" shadow="0">
            <root>
                <mxCell id="xBRMZypvhE1oIilc9Mxb-0"/>
                <mxCell id="xBRMZypvhE1oIilc9Mxb-1" parent="xBRMZypvhE1oIilc9Mxb-0"/>
                <mxCell id="xBRMZypvhE1oIilc9Mxb-2" value="&lt;p style=&quot;margin: 0px ; margin-top: 4px ; text-align: center&quot;&gt;&lt;i&gt;&amp;lt;&amp;lt;Interface&amp;gt;&amp;gt;&lt;/i&gt;&lt;br&gt;&lt;b&gt;ConfigCenterServer&lt;/b&gt;&lt;/p&gt;&lt;hr size=&quot;1&quot;&gt;&lt;p style=&quot;margin: 0px ; margin-left: 4px&quot;&gt;&lt;span style=&quot;background-color: rgb(255 , 255 , 255)&quot;&gt;+ GET(context.Context, *CfgReq) (*CfgResp, error)&lt;/span&gt;&lt;br&gt;&lt;/p&gt;&amp;nbsp;+ POS&lt;span style=&quot;background-color: rgb(255 , 255 , 255)&quot;&gt;T(context.Context, *CfgReq) (*CfgResp, error)&lt;/span&gt;&lt;br&gt;&amp;nbsp;+&amp;nbsp;&lt;span style=&quot;background-color: rgb(255 , 255 , 255)&quot;&gt;DELETE(context.Context, *CfgReq) (*CfgResp, error)&lt;/span&gt;&lt;br&gt;&amp;nbsp;+&amp;nbsp;&lt;span style=&quot;background-color: rgb(255 , 255 , 255)&quot;&gt;PUT(context.Context, *CfgReq) (*CfgResp, error)&lt;/span&gt;" style="verticalAlign=top;align=left;overflow=fill;fontSize=12;fontFamily=Helvetica;html=1;" parent="xBRMZypvhE1oIilc9Mxb-1" vertex="1">
                    <mxGeometry x="210" y="90" width="301" height="120" as="geometry"/>
                </mxCell>
                <mxCell id="xBRMZypvhE1oIilc9Mxb-3" value="&lt;p style=&quot;margin: 0px ; margin-top: 4px ; text-align: center&quot;&gt;&lt;b&gt;Manager&lt;/b&gt;&lt;/p&gt;&lt;hr size=&quot;1&quot;&gt;&lt;p style=&quot;margin: 0px ; margin-left: 4px&quot;&gt;- grpcInfo grpcInfoStruct&lt;/p&gt;&lt;hr size=&quot;1&quot;&gt;&lt;br&gt;&lt;p style=&quot;margin: 0px ; margin-left: 4px&quot;&gt;&lt;/p&gt;" style="verticalAlign=top;align=left;overflow=fill;fontSize=12;fontFamily=Helvetica;html=1;" parent="xBRMZypvhE1oIilc9Mxb-1" vertex="1">
                    <mxGeometry x="210" y="260" width="300" height="110" as="geometry"/>
                </mxCell>
                <mxCell id="xBRMZypvhE1oIilc9Mxb-4" value="" style="endArrow=block;dashed=1;endFill=0;endSize=12;html=1;exitX=0.5;exitY=0;exitDx=0;exitDy=0;entryX=0.5;entryY=1;entryDx=0;entryDy=0;" parent="xBRMZypvhE1oIilc9Mxb-1" source="xBRMZypvhE1oIilc9Mxb-3" target="xBRMZypvhE1oIilc9Mxb-2" edge="1">
                    <mxGeometry width="160" relative="1" as="geometry">
                        <mxPoint x="300" y="250" as="sourcePoint"/>
                        <mxPoint x="320" y="220" as="targetPoint"/>
                    </mxGeometry>
                </mxCell>
                <mxCell id="xBRMZypvhE1oIilc9Mxb-5" value="grpcInfoStruct" style="swimlane;fontStyle=0;childLayout=stackLayout;horizontal=1;startSize=26;fillColor=none;horizontalStack=0;resizeParent=1;resizeParentMax=0;resizeLast=0;collapsible=1;marginBottom=0;" parent="xBRMZypvhE1oIilc9Mxb-1" vertex="1">
                    <mxGeometry x="210" y="410" width="300" height="52" as="geometry">
                        <mxRectangle x="210" y="410" width="90" height="26" as="alternateBounds"/>
                    </mxGeometry>
                </mxCell>
                <mxCell id="xBRMZypvhE1oIilc9Mxb-6" value="+ Port: string" style="text;strokeColor=none;fillColor=none;align=left;verticalAlign=top;spacingLeft=4;spacingRight=4;overflow=hidden;rotatable=0;points=[[0,0.5],[1,0.5]];portConstraint=eastwest;" parent="xBRMZypvhE1oIilc9Mxb-5" vertex="1">
                    <mxGeometry y="26" width="300" height="26" as="geometry"/>
                </mxCell>
                <mxCell id="xBRMZypvhE1oIilc9Mxb-7" value="" style="endArrow=open;endFill=1;endSize=12;html=1;entryX=0.5;entryY=1;entryDx=0;entryDy=0;exitX=0.5;exitY=0;exitDx=0;exitDy=0;" parent="xBRMZypvhE1oIilc9Mxb-1" source="xBRMZypvhE1oIilc9Mxb-5" target="xBRMZypvhE1oIilc9Mxb-3" edge="1">
                    <mxGeometry width="160" relative="1" as="geometry">
                        <mxPoint x="405" y="330" as="sourcePoint"/>
                        <mxPoint x="405" y="380" as="targetPoint"/>
                    </mxGeometry>
                </mxCell>
            </root>
        </mxGraphModel>
    </diagram>
    <diagram id="VwQCwSXhqCiMM6IXDZ00" name="请求结构体">
        <mxGraphModel dx="902" dy="849" grid="1" gridSize="10" guides="1" tooltips="1" connect="1" arrows="1" fold="1" page="1" pageScale="1" pageWidth="827" pageHeight="1169" math="0" shadow="0">
            <root>
                <mxCell id="SElRI0JWkTV5mS9qe5y_-0"/>
                <mxCell id="SElRI0JWkTV5mS9qe5y_-1" parent="SElRI0JWkTV5mS9qe5y_-0"/>
                <mxCell id="SElRI0JWkTV5mS9qe5y_-2" value="&lt;p style=&quot;margin: 0px ; margin-top: 4px ; text-align: center&quot;&gt;&lt;b&gt;CfgReq&lt;/b&gt;&lt;/p&gt;&lt;hr size=&quot;1&quot;&gt;+UserName: string&lt;br&gt;+Target: string[]&lt;br&gt;+File: byte[]&lt;br&gt;+CfgVersions:CfgVersion[]&lt;br&gt;&lt;div style=&quot;height: 2px&quot;&gt;&lt;br&gt;&lt;/div&gt;&lt;div style=&quot;height: 2px&quot;&gt;&lt;br&gt;&lt;/div&gt;&lt;hr size=&quot;1&quot;&gt;&lt;div style=&quot;height: 2px&quot;&gt;&lt;/div&gt;" style="verticalAlign=top;align=left;overflow=fill;fontSize=12;fontFamily=Helvetica;html=1;" parent="SElRI0JWkTV5mS9qe5y_-1" vertex="1">
                    <mxGeometry x="40" y="80" width="190" height="110" as="geometry"/>
                </mxCell>
                <mxCell id="SElRI0JWkTV5mS9qe5y_-3" value="&lt;p style=&quot;margin: 0px ; margin-top: 4px ; text-align: center&quot;&gt;&lt;b&gt;Environment&lt;/b&gt;&lt;/p&gt;&lt;hr size=&quot;1&quot;&gt;+Num: string&lt;div style=&quot;height: 2px&quot;&gt;+Clusters:Cluster[]&lt;/div&gt;&lt;div style=&quot;height: 2px&quot;&gt;&lt;br&gt;&lt;/div&gt;&lt;div style=&quot;height: 2px&quot;&gt;&lt;br&gt;&lt;/div&gt;&lt;div style=&quot;height: 2px&quot;&gt;&lt;br&gt;&lt;/div&gt;&lt;div style=&quot;height: 2px&quot;&gt;&lt;br&gt;&lt;/div&gt;&lt;div style=&quot;height: 2px&quot;&gt;&lt;br&gt;&lt;/div&gt;&lt;div style=&quot;height: 2px&quot;&gt;&lt;br&gt;&lt;/div&gt;&lt;hr size=&quot;1&quot;&gt;&lt;div style=&quot;height: 2px&quot;&gt;&lt;/div&gt;" style="verticalAlign=top;align=left;overflow=fill;fontSize=12;fontFamily=Helvetica;html=1;" parent="SElRI0JWkTV5mS9qe5y_-1" vertex="1">
                    <mxGeometry x="40" y="400" width="190" height="100" as="geometry"/>
                </mxCell>
                <mxCell id="SElRI0JWkTV5mS9qe5y_-4" value="" style="endArrow=open;endFill=1;endSize=12;html=1;exitX=0.5;exitY=1;exitDx=0;exitDy=0;entryX=0.5;entryY=0;entryDx=0;entryDy=0;" parent="SElRI0JWkTV5mS9qe5y_-1" source="SElRI0JWkTV5mS9qe5y_-2" target="SElRI0JWkTV5mS9qe5y_-9" edge="1">
                    <mxGeometry width="160" relative="1" as="geometry">
                        <mxPoint x="430" y="334.5" as="sourcePoint"/>
                        <mxPoint x="280" y="290" as="targetPoint"/>
                    </mxGeometry>
                </mxCell>
                <mxCell id="SElRI0JWkTV5mS9qe5y_-5" value="&lt;p style=&quot;margin: 0px ; margin-top: 4px ; text-align: center&quot;&gt;&lt;b&gt;Cluster&lt;/b&gt;&lt;/p&gt;&lt;hr size=&quot;1&quot;&gt;+ClusterName: string&lt;br&gt;&lt;div style=&quot;height: 2px&quot;&gt;&lt;span&gt;&lt;br&gt;&lt;/span&gt;&lt;/div&gt;&lt;div style=&quot;height: 2px&quot;&gt;&lt;span&gt;+Nodes: Node[]&lt;/span&gt;&lt;br&gt;&lt;/div&gt;&lt;div style=&quot;height: 2px&quot;&gt;&lt;br&gt;&lt;/div&gt;&lt;div style=&quot;height: 2px&quot;&gt;&lt;br&gt;&lt;/div&gt;&lt;div style=&quot;height: 2px&quot;&gt;&lt;br&gt;&lt;/div&gt;&lt;div style=&quot;height: 2px&quot;&gt;&lt;br&gt;&lt;/div&gt;&lt;div style=&quot;height: 2px&quot;&gt;&lt;br&gt;&lt;/div&gt;&lt;div style=&quot;height: 2px&quot;&gt;&lt;br&gt;&lt;/div&gt;&lt;div style=&quot;height: 2px&quot;&gt;&lt;br&gt;&lt;/div&gt;&lt;hr size=&quot;1&quot;&gt;&lt;div style=&quot;height: 2px&quot;&gt;&lt;/div&gt;" style="verticalAlign=top;align=left;overflow=fill;fontSize=12;fontFamily=Helvetica;html=1;" parent="SElRI0JWkTV5mS9qe5y_-1" vertex="1">
                    <mxGeometry x="300" y="400" width="190" height="100" as="geometry"/>
                </mxCell>
                <mxCell id="SElRI0JWkTV5mS9qe5y_-6" value="&lt;p style=&quot;margin: 0px ; margin-top: 4px ; text-align: center&quot;&gt;&lt;b&gt;Node&lt;/b&gt;&lt;/p&gt;&lt;hr size=&quot;1&quot;&gt;+GlobalId: string&lt;br&gt;+LocalId: string&lt;br&gt;+Template: string&lt;br&gt;&lt;div style=&quot;height: 2px&quot;&gt;&lt;div style=&quot;height: 2px&quot;&gt;&lt;br&gt;&lt;/div&gt;&lt;div style=&quot;height: 2px&quot;&gt;&lt;br&gt;&lt;/div&gt;&lt;div style=&quot;height: 2px&quot;&gt;&lt;br&gt;&lt;/div&gt;&lt;/div&gt;&lt;div style=&quot;height: 2px&quot;&gt;&lt;br&gt;&lt;/div&gt;&lt;div style=&quot;height: 2px&quot;&gt;&lt;br&gt;&lt;/div&gt;&lt;div style=&quot;height: 2px&quot;&gt;&lt;br&gt;&lt;/div&gt;&lt;div style=&quot;height: 2px&quot;&gt;&lt;br&gt;&lt;/div&gt;&lt;div style=&quot;height: 2px&quot;&gt;&lt;br&gt;&lt;/div&gt;&lt;div style=&quot;height: 2px&quot;&gt;&lt;br&gt;&lt;/div&gt;&lt;hr size=&quot;1&quot;&gt;&lt;div style=&quot;height: 2px&quot;&gt;&lt;/div&gt;" style="verticalAlign=top;align=left;overflow=fill;fontSize=12;fontFamily=Helvetica;html=1;" parent="SElRI0JWkTV5mS9qe5y_-1" vertex="1">
                    <mxGeometry x="300" y="250" width="190" height="90" as="geometry"/>
                </mxCell>
                <mxCell id="SElRI0JWkTV5mS9qe5y_-7" value="" style="endArrow=open;endFill=1;endSize=12;html=1;entryX=0;entryY=0.5;entryDx=0;entryDy=0;exitX=1;exitY=0.5;exitDx=0;exitDy=0;" parent="SElRI0JWkTV5mS9qe5y_-1" source="SElRI0JWkTV5mS9qe5y_-3" target="SElRI0JWkTV5mS9qe5y_-5" edge="1">
                    <mxGeometry width="160" relative="1" as="geometry">
                        <mxPoint x="510" y="540" as="sourcePoint"/>
                        <mxPoint x="450" y="540" as="targetPoint"/>
                    </mxGeometry>
                </mxCell>
                <mxCell id="SElRI0JWkTV5mS9qe5y_-8" value="" style="endArrow=open;endFill=1;endSize=12;html=1;entryX=0.5;entryY=1;entryDx=0;entryDy=0;exitX=0.5;exitY=0;exitDx=0;exitDy=0;" parent="SElRI0JWkTV5mS9qe5y_-1" source="SElRI0JWkTV5mS9qe5y_-5" target="SElRI0JWkTV5mS9qe5y_-6" edge="1">
                    <mxGeometry width="160" relative="1" as="geometry">
                        <mxPoint x="250" y="449.5" as="sourcePoint"/>
                        <mxPoint x="190" y="449.5" as="targetPoint"/>
                    </mxGeometry>
                </mxCell>
                <mxCell id="SElRI0JWkTV5mS9qe5y_-9" value="&lt;p style=&quot;margin: 0px ; margin-top: 4px ; text-align: center&quot;&gt;&lt;b&gt;CfgVersion&lt;/b&gt;&lt;/p&gt;&lt;hr size=&quot;1&quot;&gt;+Version: string&lt;br&gt;&lt;div style=&quot;height: 2px&quot;&gt;+Envs: Environment[]&lt;/div&gt;&lt;div style=&quot;height: 2px&quot;&gt;&lt;br&gt;&lt;/div&gt;&lt;div style=&quot;height: 2px&quot;&gt;&lt;br&gt;&lt;/div&gt;&lt;div style=&quot;height: 2px&quot;&gt;&lt;br&gt;&lt;/div&gt;&lt;div style=&quot;height: 2px&quot;&gt;&lt;br&gt;&lt;/div&gt;&lt;div style=&quot;height: 2px&quot;&gt;&lt;br&gt;&lt;/div&gt;&lt;div style=&quot;height: 2px&quot;&gt;&lt;br&gt;&lt;/div&gt;&lt;hr size=&quot;1&quot;&gt;&lt;div style=&quot;height: 2px&quot;&gt;&lt;/div&gt;" style="verticalAlign=top;align=left;overflow=fill;fontSize=12;fontFamily=Helvetica;html=1;" parent="SElRI0JWkTV5mS9qe5y_-1" vertex="1">
                    <mxGeometry x="40" y="250" width="190" height="100" as="geometry"/>
                </mxCell>
                <mxCell id="SElRI0JWkTV5mS9qe5y_-10" value="" style="endArrow=open;endFill=1;endSize=12;html=1;exitX=0.5;exitY=1;exitDx=0;exitDy=0;entryX=0.5;entryY=0;entryDx=0;entryDy=0;" parent="SElRI0JWkTV5mS9qe5y_-1" source="SElRI0JWkTV5mS9qe5y_-9" target="SElRI0JWkTV5mS9qe5y_-3" edge="1">
                    <mxGeometry width="160" relative="1" as="geometry">
                        <mxPoint x="440" y="299.5" as="sourcePoint"/>
                        <mxPoint x="380" y="410" as="targetPoint"/>
                    </mxGeometry>
                </mxCell>
            </root>
        </mxGraphModel>
    </diagram>
    <diagram id="rPhLMJ_vx7LH08R4R5yU" name="返回结构体">
        <mxGraphModel dx="902" dy="849" grid="1" gridSize="10" guides="1" tooltips="1" connect="1" arrows="1" fold="1" page="1" pageScale="1" pageWidth="827" pageHeight="1169" math="0" shadow="0">
            <root>
                <mxCell id="bxHBm3lI2ABezjLPAB2C-0"/>
                <mxCell id="bxHBm3lI2ABezjLPAB2C-1" parent="bxHBm3lI2ABezjLPAB2C-0"/>
                <mxCell id="bxHBm3lI2ABezjLPAB2C-2" value="&lt;p style=&quot;margin: 0px ; margin-top: 4px ; text-align: center&quot;&gt;&lt;b&gt;CfgResp&lt;/b&gt;&lt;/p&gt;&lt;hr size=&quot;1&quot;&gt;+Status: string&lt;br&gt;+SliceData: string[]&lt;br&gt;+FileData: byte[]&lt;br&gt;&lt;div style=&quot;height: 2px&quot;&gt;&lt;br&gt;&lt;/div&gt;&lt;div style=&quot;height: 2px&quot;&gt;&lt;br&gt;&lt;/div&gt;&lt;hr size=&quot;1&quot;&gt;&lt;div style=&quot;height: 2px&quot;&gt;&lt;/div&gt;" style="verticalAlign=top;align=left;overflow=fill;fontSize=12;fontFamily=Helvetica;html=1;" parent="bxHBm3lI2ABezjLPAB2C-1" vertex="1">
                    <mxGeometry x="150" y="170" width="190" height="100" as="geometry"/>
                </mxCell>
            </root>
        </mxGraphModel>
    </diagram>
    <diagram id="-1WKzJ1LBv83wMjUGA2M" name="生成模块">
        <mxGraphModel dx="902" dy="849" grid="1" gridSize="10" guides="1" tooltips="1" connect="1" arrows="1" fold="1" page="1" pageScale="1" pageWidth="827" pageHeight="1169" math="0" shadow="0">
            <root>
                <mxCell id="uL82f77CeWHKGU_sk9bK-0"/>
                <mxCell id="uL82f77CeWHKGU_sk9bK-1" parent="uL82f77CeWHKGU_sk9bK-0"/>
                <mxCell id="uL82f77CeWHKGU_sk9bK-2" value="TemplateImpl" style="swimlane;fontStyle=1;align=center;verticalAlign=top;childLayout=stackLayout;horizontal=1;startSize=26;horizontalStack=0;resizeParent=1;resizeParentMax=0;resizeLast=0;collapsible=1;marginBottom=0;" parent="uL82f77CeWHKGU_sk9bK-1" vertex="1">
                    <mxGeometry x="290" y="170" width="320" height="150" as="geometry"/>
                </mxCell>
                <mxCell id="uL82f77CeWHKGU_sk9bK-3" value="&#10;- funcMap: map[string]interface{}&#10;- allTemplates: *template.Template" style="text;strokeColor=none;fillColor=none;align=left;verticalAlign=top;spacingLeft=4;spacingRight=4;overflow=hidden;rotatable=0;points=[[0,0.5],[1,0.5]];portConstraint=eastwest;" parent="uL82f77CeWHKGU_sk9bK-2" vertex="1">
                    <mxGeometry y="26" width="320" height="64" as="geometry"/>
                </mxCell>
                <mxCell id="uL82f77CeWHKGU_sk9bK-4" value="" style="line;strokeWidth=1;fillColor=none;align=left;verticalAlign=middle;spacingTop=-1;spacingLeft=3;spacingRight=3;rotatable=0;labelPosition=right;points=[];portConstraint=eastwest;" parent="uL82f77CeWHKGU_sk9bK-2" vertex="1">
                    <mxGeometry y="90" width="320" height="10" as="geometry"/>
                </mxCell>
                <mxCell id="uL82f77CeWHKGU_sk9bK-5" value="+ AddTmpl(tmplContent []byte, tmplName string)error&#10;+ Fill(tmplContent []byte, tmplName string)([]byte, error)" style="text;strokeColor=none;fillColor=none;align=left;verticalAlign=top;spacingLeft=4;spacingRight=4;overflow=hidden;rotatable=0;points=[[0,0.5],[1,0.5]];portConstraint=eastwest;" parent="uL82f77CeWHKGU_sk9bK-2" vertex="1">
                    <mxGeometry y="100" width="320" height="50" as="geometry"/>
                </mxCell>
            </root>
        </mxGraphModel>
    </diagram>
    <diagram id="bRibfAzFR6aRC4SZ2dom" name="日志模块">
        <mxGraphModel dx="902" dy="849" grid="1" gridSize="10" guides="1" tooltips="1" connect="1" arrows="1" fold="1" page="1" pageScale="1" pageWidth="827" pageHeight="1169" math="0" shadow="0">
            <root>
                <mxCell id="nEbsIbjHg3VZyelAmhAw-0"/>
                <mxCell id="nEbsIbjHg3VZyelAmhAw-1" parent="nEbsIbjHg3VZyelAmhAw-0"/>
                <mxCell id="nEbsIbjHg3VZyelAmhAw-2" value="Logger" style="swimlane;fontStyle=1;align=center;verticalAlign=top;childLayout=stackLayout;horizontal=1;startSize=26;horizontalStack=0;resizeParent=1;resizeParentMax=0;resizeLast=0;collapsible=1;marginBottom=0;" parent="nEbsIbjHg3VZyelAmhAw-1" vertex="1">
                    <mxGeometry x="290" y="170" width="210" height="120" as="geometry"/>
                </mxCell>
                <mxCell id="nEbsIbjHg3VZyelAmhAw-3" value="- zapLog: *zap.Logger&#10;- sugarLog: *zap.SugaredLogger &#10;- logInfo: LogInfo" style="text;strokeColor=none;fillColor=none;align=left;verticalAlign=top;spacingLeft=4;spacingRight=4;overflow=hidden;rotatable=0;points=[[0,0.5],[1,0.5]];portConstraint=eastwest;" parent="nEbsIbjHg3VZyelAmhAw-2" vertex="1">
                    <mxGeometry y="26" width="210" height="54" as="geometry"/>
                </mxCell>
                <mxCell id="nEbsIbjHg3VZyelAmhAw-4" value="" style="line;strokeWidth=1;fillColor=none;align=left;verticalAlign=middle;spacingTop=-1;spacingLeft=3;spacingRight=3;rotatable=0;labelPosition=right;points=[];portConstraint=eastwest;" parent="nEbsIbjHg3VZyelAmhAw-2" vertex="1">
                    <mxGeometry y="80" width="210" height="10" as="geometry"/>
                </mxCell>
                <mxCell id="nEbsIbjHg3VZyelAmhAw-5" value=" " style="text;strokeColor=none;fillColor=none;align=left;verticalAlign=top;spacingLeft=4;spacingRight=4;overflow=hidden;rotatable=0;points=[[0,0.5],[1,0.5]];portConstraint=eastwest;" parent="nEbsIbjHg3VZyelAmhAw-2" vertex="1">
                    <mxGeometry y="90" width="210" height="30" as="geometry"/>
                </mxCell>
                <mxCell id="nEbsIbjHg3VZyelAmhAw-6" value="LogInfo" style="swimlane;fontStyle=1;align=center;verticalAlign=top;childLayout=stackLayout;horizontal=1;startSize=26;horizontalStack=0;resizeParent=1;resizeParentMax=0;resizeLast=0;collapsible=1;marginBottom=0;" parent="nEbsIbjHg3VZyelAmhAw-1" vertex="1">
                    <mxGeometry x="290" y="330" width="210" height="174" as="geometry"/>
                </mxCell>
                <mxCell id="nEbsIbjHg3VZyelAmhAw-7" value="+ LogPath: string&#10;+ RecordLevel: string&#10;+ EncodingType: string&#10;+ FileName: string&#10;+ MaxSize: float64&#10;+ MaxBackups: float64&#10;+ MaxAge: float64" style="text;strokeColor=none;fillColor=none;align=left;verticalAlign=top;spacingLeft=4;spacingRight=4;overflow=hidden;rotatable=0;points=[[0,0.5],[1,0.5]];portConstraint=eastwest;" parent="nEbsIbjHg3VZyelAmhAw-6" vertex="1">
                    <mxGeometry y="26" width="210" height="114" as="geometry"/>
                </mxCell>
                <mxCell id="nEbsIbjHg3VZyelAmhAw-8" value="" style="line;strokeWidth=1;fillColor=none;align=left;verticalAlign=middle;spacingTop=-1;spacingLeft=3;spacingRight=3;rotatable=0;labelPosition=right;points=[];portConstraint=eastwest;" parent="nEbsIbjHg3VZyelAmhAw-6" vertex="1">
                    <mxGeometry y="140" width="210" height="8" as="geometry"/>
                </mxCell>
                <mxCell id="nEbsIbjHg3VZyelAmhAw-9" value=" " style="text;strokeColor=none;fillColor=none;align=left;verticalAlign=top;spacingLeft=4;spacingRight=4;overflow=hidden;rotatable=0;points=[[0,0.5],[1,0.5]];portConstraint=eastwest;" parent="nEbsIbjHg3VZyelAmhAw-6" vertex="1">
                    <mxGeometry y="148" width="210" height="26" as="geometry"/>
                </mxCell>
                <mxCell id="nEbsIbjHg3VZyelAmhAw-10" value="" style="endArrow=open;endFill=1;endSize=12;html=1;entryX=0.5;entryY=0;entryDx=0;entryDy=0;exitX=0.495;exitY=1.033;exitDx=0;exitDy=0;exitPerimeter=0;" parent="nEbsIbjHg3VZyelAmhAw-1" edge="1">
                    <mxGeometry width="160" relative="1" as="geometry">
                        <mxPoint x="393.95000000000005" y="290.99" as="sourcePoint"/>
                        <mxPoint x="395" y="330" as="targetPoint"/>
                    </mxGeometry>
                </mxCell>
            </root>
        </mxGraphModel>
    </diagram>
    <diagram id="RiXcb-yfPbVJRnUtqRZk" name="存储模块">
        <mxGraphModel dx="902" dy="849" grid="1" gridSize="10" guides="1" tooltips="1" connect="1" arrows="1" fold="1" page="1" pageScale="1" pageWidth="827" pageHeight="1169" math="0" shadow="0">
            <root>
                <mxCell id="aiT9Y8SS3V6xbdt7coZ7-0"/>
                <mxCell id="aiT9Y8SS3V6xbdt7coZ7-1" parent="aiT9Y8SS3V6xbdt7coZ7-0"/>
                <mxCell id="aiT9Y8SS3V6xbdt7coZ7-2" value="EtcdType" style="swimlane;fontStyle=1;align=center;verticalAlign=top;childLayout=stackLayout;horizontal=1;startSize=26;horizontalStack=0;resizeParent=1;resizeParentMax=0;resizeLast=0;collapsible=1;marginBottom=0;" parent="aiT9Y8SS3V6xbdt7coZ7-1" vertex="1">
                    <mxGeometry x="160" y="470" width="280" height="120" as="geometry"/>
                </mxCell>
                <mxCell id="aiT9Y8SS3V6xbdt7coZ7-3" value="- client: *clientv3.Client&#10;- kv: clientv3.KV &#10;- cfgMap: *CfgInfo" style="text;strokeColor=none;fillColor=none;align=left;verticalAlign=top;spacingLeft=4;spacingRight=4;overflow=hidden;rotatable=0;points=[[0,0.5],[1,0.5]];portConstraint=eastwest;" parent="aiT9Y8SS3V6xbdt7coZ7-2" vertex="1">
                    <mxGeometry y="26" width="280" height="54" as="geometry"/>
                </mxCell>
                <mxCell id="aiT9Y8SS3V6xbdt7coZ7-4" value="" style="line;strokeWidth=1;fillColor=none;align=left;verticalAlign=middle;spacingTop=-1;spacingLeft=3;spacingRight=3;rotatable=0;labelPosition=right;points=[];portConstraint=eastwest;" parent="aiT9Y8SS3V6xbdt7coZ7-2" vertex="1">
                    <mxGeometry y="80" width="280" height="10" as="geometry"/>
                </mxCell>
                <mxCell id="aiT9Y8SS3V6xbdt7coZ7-5" value="+ ConnectToEtcd(etcdConfigLocation string)" style="text;strokeColor=none;fillColor=none;align=left;verticalAlign=top;spacingLeft=4;spacingRight=4;overflow=hidden;rotatable=0;points=[[0,0.5],[1,0.5]];portConstraint=eastwest;" parent="aiT9Y8SS3V6xbdt7coZ7-2" vertex="1">
                    <mxGeometry y="90" width="280" height="30" as="geometry"/>
                </mxCell>
                <mxCell id="aiT9Y8SS3V6xbdt7coZ7-6" value="EtcdInfo" style="swimlane;fontStyle=1;align=center;verticalAlign=top;childLayout=stackLayout;horizontal=1;startSize=26;horizontalStack=0;resizeParent=1;resizeParentMax=0;resizeLast=0;collapsible=1;marginBottom=0;" parent="aiT9Y8SS3V6xbdt7coZ7-1" vertex="1">
                    <mxGeometry x="160" y="690" width="280" height="114" as="geometry"/>
                </mxCell>
                <mxCell id="aiT9Y8SS3V6xbdt7coZ7-7" value="+ EndPoint: []string&#10;+ UserName: string&#10;+ PassWord: string" style="text;strokeColor=none;fillColor=none;align=left;verticalAlign=top;spacingLeft=4;spacingRight=4;overflow=hidden;rotatable=0;points=[[0,0.5],[1,0.5]];portConstraint=eastwest;" parent="aiT9Y8SS3V6xbdt7coZ7-6" vertex="1">
                    <mxGeometry y="26" width="280" height="54" as="geometry"/>
                </mxCell>
                <mxCell id="aiT9Y8SS3V6xbdt7coZ7-8" value="" style="line;strokeWidth=1;fillColor=none;align=left;verticalAlign=middle;spacingTop=-1;spacingLeft=3;spacingRight=3;rotatable=0;labelPosition=right;points=[];portConstraint=eastwest;" parent="aiT9Y8SS3V6xbdt7coZ7-6" vertex="1">
                    <mxGeometry y="80" width="280" height="8" as="geometry"/>
                </mxCell>
                <mxCell id="aiT9Y8SS3V6xbdt7coZ7-9" value=" " style="text;strokeColor=none;fillColor=none;align=left;verticalAlign=top;spacingLeft=4;spacingRight=4;overflow=hidden;rotatable=0;points=[[0,0.5],[1,0.5]];portConstraint=eastwest;" parent="aiT9Y8SS3V6xbdt7coZ7-6" vertex="1">
                    <mxGeometry y="88" width="280" height="26" as="geometry"/>
                </mxCell>
                <mxCell id="aiT9Y8SS3V6xbdt7coZ7-10" value="" style="endArrow=open;endFill=1;endSize=12;html=1;entryX=0.5;entryY=0;entryDx=0;entryDy=0;exitX=0.495;exitY=1.033;exitDx=0;exitDy=0;exitPerimeter=0;" parent="aiT9Y8SS3V6xbdt7coZ7-1" source="aiT9Y8SS3V6xbdt7coZ7-5" target="aiT9Y8SS3V6xbdt7coZ7-6" edge="1">
                    <mxGeometry width="160" relative="1" as="geometry">
                        <mxPoint x="380" y="560" as="sourcePoint"/>
                        <mxPoint x="480" y="570" as="targetPoint"/>
                    </mxGeometry>
                </mxCell>
                <mxCell id="aiT9Y8SS3V6xbdt7coZ7-11" value="&lt;p style=&quot;margin: 0px ; margin-top: 4px ; text-align: center&quot;&gt;&lt;i&gt;&amp;lt;&amp;lt;Interface&amp;gt;&amp;gt;&lt;/i&gt;&lt;br&gt;&lt;b&gt;Storage&lt;/b&gt;&lt;/p&gt;&lt;hr size=&quot;1&quot;&gt;&lt;p style=&quot;margin: 0px ; margin-left: 4px&quot;&gt;+ Put(key, value string): (error)&lt;br&gt;&lt;/p&gt;&amp;nbsp;+ Get(key string): ([]byte, error)&lt;br&gt;&amp;nbsp;+ Delete(key string): (error)&lt;br&gt;&amp;nbsp;+ GetbyPrefix(prefix string)(*map[string][]byte, error)&lt;br&gt;&amp;nbsp;+ DeletebyPrefix(prefix string)(error)" style="verticalAlign=top;align=left;overflow=fill;fontSize=12;fontFamily=Helvetica;html=1;" parent="aiT9Y8SS3V6xbdt7coZ7-1" vertex="1">
                    <mxGeometry x="280" y="230" width="410" height="120" as="geometry"/>
                </mxCell>
                <mxCell id="aiT9Y8SS3V6xbdt7coZ7-12" value="&lt;p style=&quot;margin: 0px ; margin-top: 4px ; text-align: center&quot;&gt;&lt;b&gt;CompressedFileType&lt;/b&gt;&lt;/p&gt;&lt;hr size=&quot;1&quot;&gt;&lt;p style=&quot;margin: 0px ; margin-left: 4px&quot;&gt;- path: string&lt;/p&gt;&lt;hr size=&quot;1&quot;&gt;&amp;nbsp;+SetPath(path string): ()&lt;br&gt;&lt;p style=&quot;margin: 0px ; margin-left: 4px&quot;&gt;&lt;/p&gt;" style="verticalAlign=top;align=left;overflow=fill;fontSize=12;fontFamily=Helvetica;html=1;" parent="aiT9Y8SS3V6xbdt7coZ7-1" vertex="1">
                    <mxGeometry x="520" y="470" width="270" height="120" as="geometry"/>
                </mxCell>
                <mxCell id="aiT9Y8SS3V6xbdt7coZ7-13" value="" style="endArrow=block;dashed=1;endFill=0;endSize=12;html=1;exitX=0.5;exitY=0;exitDx=0;exitDy=0;entryX=0.5;entryY=1;entryDx=0;entryDy=0;" parent="aiT9Y8SS3V6xbdt7coZ7-1" source="aiT9Y8SS3V6xbdt7coZ7-12" target="aiT9Y8SS3V6xbdt7coZ7-11" edge="1">
                    <mxGeometry width="160" relative="1" as="geometry">
                        <mxPoint x="371" y="430" as="sourcePoint"/>
                        <mxPoint x="391" y="400" as="targetPoint"/>
                    </mxGeometry>
                </mxCell>
                <mxCell id="aiT9Y8SS3V6xbdt7coZ7-14" value="" style="endArrow=block;dashed=1;endFill=0;endSize=12;html=1;exitX=0.5;exitY=0;exitDx=0;exitDy=0;entryX=0.5;entryY=1;entryDx=0;entryDy=0;" parent="aiT9Y8SS3V6xbdt7coZ7-1" source="aiT9Y8SS3V6xbdt7coZ7-2" target="aiT9Y8SS3V6xbdt7coZ7-11" edge="1">
                    <mxGeometry width="160" relative="1" as="geometry">
                        <mxPoint x="640" y="410" as="sourcePoint"/>
                        <mxPoint x="495" y="360" as="targetPoint"/>
                    </mxGeometry>
                </mxCell>
            </root>
        </mxGraphModel>
    </diagram>
    <diagram id="ZMKhTPZ05tbdGdzibAWB" name="信息层级">
        <mxGraphModel dx="752" dy="708" grid="1" gridSize="10" guides="1" tooltips="1" connect="1" arrows="1" fold="1" page="1" pageScale="1" pageWidth="827" pageHeight="1169" math="0" shadow="0">
            <root>
                <mxCell id="ywxcltXFpVqNOVpKRHPF-0"/>
                <mxCell id="ywxcltXFpVqNOVpKRHPF-1" parent="ywxcltXFpVqNOVpKRHPF-0"/>
                <mxCell id="ywxcltXFpVqNOVpKRHPF-2" value="" style="html=1;fillColor=#fff2cc;strokeColor=#d6b656;" parent="ywxcltXFpVqNOVpKRHPF-1" vertex="1">
                    <mxGeometry x="250" y="150" width="340" height="280" as="geometry"/>
                </mxCell>
                <mxCell id="ywxcltXFpVqNOVpKRHPF-3" value="" style="html=1;fillColor=#d5e8d4;strokeColor=#82b366;" parent="ywxcltXFpVqNOVpKRHPF-1" vertex="1">
                    <mxGeometry x="260" y="200" width="220" height="220" as="geometry"/>
                </mxCell>
                <mxCell id="ywxcltXFpVqNOVpKRHPF-4" value="" style="html=1;fillColor=#dae8fc;strokeColor=#6c8ebf;" parent="ywxcltXFpVqNOVpKRHPF-1" vertex="1">
                    <mxGeometry x="270" y="250" width="100" height="160" as="geometry"/>
                </mxCell>
                <mxCell id="ywxcltXFpVqNOVpKRHPF-5" value="" style="html=1;fillColor=#ffe6cc;strokeColor=#d79b00;" parent="ywxcltXFpVqNOVpKRHPF-1" vertex="1">
                    <mxGeometry x="280" y="282.5" width="80" height="27.5" as="geometry"/>
                </mxCell>
                <mxCell id="ywxcltXFpVqNOVpKRHPF-6" value="" style="html=1;fillColor=#f0a30a;strokeColor=#BD7000;fontColor=#000000;" parent="ywxcltXFpVqNOVpKRHPF-1" vertex="1">
                    <mxGeometry x="280" y="324.75" width="80" height="25.25" as="geometry"/>
                </mxCell>
                <mxCell id="ywxcltXFpVqNOVpKRHPF-7" value="..." style="text;align=center;fontStyle=1;verticalAlign=middle;spacingLeft=3;spacingRight=3;strokeColor=none;rotatable=0;points=[[0,0.5],[1,0.5]];portConstraint=eastwest;" parent="ywxcltXFpVqNOVpKRHPF-1" vertex="1">
                    <mxGeometry x="280" y="390" width="80" height="20" as="geometry"/>
                </mxCell>
                <mxCell id="ywxcltXFpVqNOVpKRHPF-8" value="配置方案1" style="text;align=center;fontStyle=1;verticalAlign=middle;spacingLeft=3;spacingRight=3;strokeColor=none;rotatable=0;points=[[0,0.5],[1,0.5]];portConstraint=eastwest;" parent="ywxcltXFpVqNOVpKRHPF-1" vertex="1">
                    <mxGeometry x="280" y="250" width="80" height="26" as="geometry"/>
                </mxCell>
                <mxCell id="ywxcltXFpVqNOVpKRHPF-9" value="配置数据(版本层面)" style="text;align=center;fontStyle=1;verticalAlign=middle;spacingLeft=3;spacingRight=3;strokeColor=none;rotatable=0;points=[[0,0.5],[1,0.5]];portConstraint=eastwest;" parent="ywxcltXFpVqNOVpKRHPF-1" vertex="1">
                    <mxGeometry x="340" y="212" width="80" height="26" as="geometry"/>
                </mxCell>
                <mxCell id="ywxcltXFpVqNOVpKRHPF-10" value="" style="html=1;fillColor=#dae8fc;strokeColor=#6c8ebf;" parent="ywxcltXFpVqNOVpKRHPF-1" vertex="1">
                    <mxGeometry x="380" y="250" width="90" height="40" as="geometry"/>
                </mxCell>
                <mxCell id="ywxcltXFpVqNOVpKRHPF-11" value="配置方案2" style="text;align=center;fontStyle=1;verticalAlign=middle;spacingLeft=3;spacingRight=3;strokeColor=none;rotatable=0;points=[[0,0.5],[1,0.5]];portConstraint=eastwest;" parent="ywxcltXFpVqNOVpKRHPF-1" vertex="1">
                    <mxGeometry x="395" y="257" width="60" height="26" as="geometry"/>
                </mxCell>
                <mxCell id="ywxcltXFpVqNOVpKRHPF-12" value="" style="html=1;fillColor=#dae8fc;strokeColor=#6c8ebf;" parent="ywxcltXFpVqNOVpKRHPF-1" vertex="1">
                    <mxGeometry x="380" y="308.5" width="90" height="40" as="geometry"/>
                </mxCell>
                <mxCell id="ywxcltXFpVqNOVpKRHPF-13" value="" style="html=1;fillColor=#dae8fc;strokeColor=#6c8ebf;" parent="ywxcltXFpVqNOVpKRHPF-1" vertex="1">
                    <mxGeometry x="380" y="370" width="90" height="40" as="geometry"/>
                </mxCell>
                <mxCell id="ywxcltXFpVqNOVpKRHPF-14" value="配置方案3" style="text;align=center;fontStyle=1;verticalAlign=middle;spacingLeft=3;spacingRight=3;strokeColor=none;rotatable=0;points=[[0,0.5],[1,0.5]];portConstraint=eastwest;" parent="ywxcltXFpVqNOVpKRHPF-1" vertex="1">
                    <mxGeometry x="395" y="318.5" width="60" height="23" as="geometry"/>
                </mxCell>
                <mxCell id="ywxcltXFpVqNOVpKRHPF-15" value="..." style="text;align=center;fontStyle=1;verticalAlign=middle;spacingLeft=3;spacingRight=3;strokeColor=none;rotatable=0;points=[[0,0.5],[1,0.5]];portConstraint=eastwest;" parent="ywxcltXFpVqNOVpKRHPF-1" vertex="1">
                    <mxGeometry x="390" y="378.5" width="70" height="23" as="geometry"/>
                </mxCell>
                <mxCell id="ywxcltXFpVqNOVpKRHPF-16" value="配置中心" style="text;align=center;fontStyle=1;verticalAlign=middle;spacingLeft=3;spacingRight=3;strokeColor=none;rotatable=0;points=[[0,0.5],[1,0.5]];portConstraint=eastwest;" parent="ywxcltXFpVqNOVpKRHPF-1" vertex="1">
                    <mxGeometry x="385" y="160" width="80" height="26" as="geometry"/>
                </mxCell>
                <mxCell id="ywxcltXFpVqNOVpKRHPF-17" value="历史版本1" style="html=1;fillColor=#d5e8d4;strokeColor=#82b366;" parent="ywxcltXFpVqNOVpKRHPF-1" vertex="1">
                    <mxGeometry x="490" y="200" width="90" height="50" as="geometry"/>
                </mxCell>
                <mxCell id="ywxcltXFpVqNOVpKRHPF-19" value="..." style="text;align=center;fontStyle=1;verticalAlign=middle;spacingLeft=3;spacingRight=3;strokeColor=none;rotatable=0;points=[[0,0.5],[1,0.5]];portConstraint=eastwest;" parent="ywxcltXFpVqNOVpKRHPF-1" vertex="1">
                    <mxGeometry x="495" y="277" width="80" height="26" as="geometry"/>
                </mxCell>
                <mxCell id="ywxcltXFpVqNOVpKRHPF-20" value="" style="rounded=0;whiteSpace=wrap;html=1;fillColor=#f8cecc;strokeColor=#b85450;" parent="ywxcltXFpVqNOVpKRHPF-1" vertex="1">
                    <mxGeometry x="490" y="350" width="90" height="70" as="geometry"/>
                </mxCell>
                <mxCell id="ywxcltXFpVqNOVpKRHPF-21" value="公共信息文件" style="text;align=center;fontStyle=1;verticalAlign=middle;spacingLeft=3;spacingRight=3;strokeColor=none;rotatable=0;points=[[0,0.5],[1,0.5]];portConstraint=eastwest;" parent="ywxcltXFpVqNOVpKRHPF-1" vertex="1">
                    <mxGeometry x="480" y="350" width="110" height="26" as="geometry"/>
                </mxCell>
                <mxCell id="ywxcltXFpVqNOVpKRHPF-22" value="部署声明" style="text;align=center;fontStyle=1;verticalAlign=middle;spacingLeft=3;spacingRight=3;strokeColor=none;rotatable=0;points=[[0,0.5],[1,0.5]];portConstraint=eastwest;" parent="ywxcltXFpVqNOVpKRHPF-1" vertex="1">
                    <mxGeometry x="280" y="281" width="80" height="29" as="geometry"/>
                </mxCell>
                <mxCell id="ywxcltXFpVqNOVpKRHPF-25" value="服务声明" style="text;align=center;fontStyle=1;verticalAlign=middle;spacingLeft=3;spacingRight=3;strokeColor=none;rotatable=0;points=[[0,0.5],[1,0.5]];portConstraint=eastwest;" parent="ywxcltXFpVqNOVpKRHPF-1" vertex="1">
                    <mxGeometry x="280" y="326.63" width="80" height="21.5" as="geometry"/>
                </mxCell>
                <mxCell id="ywxcltXFpVqNOVpKRHPF-28" value="文件1" style="rounded=0;whiteSpace=wrap;html=1;fillColor=#f5f5f5;strokeColor=#666666;fontColor=#333333;" parent="ywxcltXFpVqNOVpKRHPF-1" vertex="1">
                    <mxGeometry x="500" y="377" width="70" height="36" as="geometry"/>
                </mxCell>
                <mxCell id="dwqAJP84b0scPuaFZpVM-0" value="" style="html=1;fillColor=#bac8d3;strokeColor=#23445d;" vertex="1" parent="ywxcltXFpVqNOVpKRHPF-1">
                    <mxGeometry x="280" y="366" width="80" height="24" as="geometry"/>
                </mxCell>
                <mxCell id="dwqAJP84b0scPuaFZpVM-1" value="配置模板" style="text;align=center;fontStyle=1;verticalAlign=middle;spacingLeft=3;spacingRight=3;strokeColor=none;rotatable=0;points=[[0,0.5],[1,0.5]];portConstraint=eastwest;" vertex="1" parent="ywxcltXFpVqNOVpKRHPF-1">
                    <mxGeometry x="280" y="363.5" width="80" height="29" as="geometry"/>
                </mxCell>
            </root>
        </mxGraphModel>
    </diagram>
    <diagram id="XcY-_FaA0k7e9lFt2txW" name="配置获取">
        <mxGraphModel dx="902" dy="849" grid="1" gridSize="10" guides="1" tooltips="1" connect="1" arrows="1" fold="1" page="1" pageScale="1" pageWidth="827" pageHeight="1169" math="0" shadow="0">
            <root>
                <mxCell id="F8TEMaA6kwzKf-yMe2iA-0"/>
                <mxCell id="F8TEMaA6kwzKf-yMe2iA-1" parent="F8TEMaA6kwzKf-yMe2iA-0"/>
                <mxCell id="F8TEMaA6kwzKf-yMe2iA-2" value="配置端" style="shape=umlLifeline;perimeter=lifelinePerimeter;whiteSpace=wrap;html=1;container=1;collapsible=0;recursiveResize=0;outlineConnect=0;fontSize=10;" parent="F8TEMaA6kwzKf-yMe2iA-1" vertex="1">
                    <mxGeometry x="180" y="130" width="100" height="170" as="geometry"/>
                </mxCell>
                <mxCell id="F8TEMaA6kwzKf-yMe2iA-3" value="" style="html=1;points=[];perimeter=orthogonalPerimeter;fontSize=10;" parent="F8TEMaA6kwzKf-yMe2iA-2" vertex="1">
                    <mxGeometry x="45" y="50" width="10" height="110" as="geometry"/>
                </mxCell>
                <mxCell id="F8TEMaA6kwzKf-yMe2iA-4" value="配置服务" style="shape=umlLifeline;perimeter=lifelinePerimeter;whiteSpace=wrap;html=1;container=1;collapsible=0;recursiveResize=0;outlineConnect=0;fontSize=10;" parent="F8TEMaA6kwzKf-yMe2iA-1" vertex="1">
                    <mxGeometry x="320" y="130" width="100" height="170" as="geometry"/>
                </mxCell>
                <mxCell id="F8TEMaA6kwzKf-yMe2iA-5" value="" style="html=1;points=[];perimeter=orthogonalPerimeter;fontSize=10;" parent="F8TEMaA6kwzKf-yMe2iA-4" vertex="1">
                    <mxGeometry x="45" y="50" width="10" height="110" as="geometry"/>
                </mxCell>
                <mxCell id="F8TEMaA6kwzKf-yMe2iA-6" value="etcd" style="shape=umlLifeline;perimeter=lifelinePerimeter;whiteSpace=wrap;html=1;container=1;collapsible=0;recursiveResize=0;outlineConnect=0;fontSize=10;" parent="F8TEMaA6kwzKf-yMe2iA-1" vertex="1">
                    <mxGeometry x="460" y="130" width="100" height="170" as="geometry"/>
                </mxCell>
                <mxCell id="F8TEMaA6kwzKf-yMe2iA-7" value="" style="html=1;points=[];perimeter=orthogonalPerimeter;fontSize=10;" parent="F8TEMaA6kwzKf-yMe2iA-6" vertex="1">
                    <mxGeometry x="45" y="50" width="10" height="110" as="geometry"/>
                </mxCell>
                <mxCell id="F8TEMaA6kwzKf-yMe2iA-8" value="获取目标配置" style="endArrow=classic;html=1;entryX=0;entryY=0.146;entryDx=0;entryDy=0;entryPerimeter=0;exitX=1.01;exitY=0.147;exitDx=0;exitDy=0;exitPerimeter=0;fontSize=10;" parent="F8TEMaA6kwzKf-yMe2iA-1" edge="1">
                    <mxGeometry width="50" height="50" relative="1" as="geometry">
                        <mxPoint x="375.0999999999999" y="234.87000000000012" as="sourcePoint"/>
                        <mxPoint x="504.9999999999998" y="234.66000000000008" as="targetPoint"/>
                    </mxGeometry>
                </mxCell>
                <mxCell id="F8TEMaA6kwzKf-yMe2iA-9" value="目标配置内容" style="endArrow=classic;html=1;fontSize=10;entryX=1;entryY=0.346;entryDx=0;entryDy=0;entryPerimeter=0;exitX=0;exitY=0.346;exitDx=0;exitDy=0;exitPerimeter=0;" parent="F8TEMaA6kwzKf-yMe2iA-1" edge="1">
                    <mxGeometry width="50" height="50" relative="1" as="geometry">
                        <mxPoint x="505" y="253.92599999999993" as="sourcePoint"/>
                        <mxPoint x="375" y="253.92599999999993" as="targetPoint"/>
                    </mxGeometry>
                </mxCell>
                <mxCell id="F8TEMaA6kwzKf-yMe2iA-10" value="目标配置内容" style="endArrow=classic;html=1;fontSize=10;exitX=0.481;exitY=0.714;exitDx=0;exitDy=0;exitPerimeter=0;entryX=1.029;entryY=0.347;entryDx=0;entryDy=0;entryPerimeter=0;" parent="F8TEMaA6kwzKf-yMe2iA-1" edge="1">
                    <mxGeometry width="50" height="50" relative="1" as="geometry">
                        <mxPoint x="364.98" y="278" as="sourcePoint"/>
                        <mxPoint x="235.21000000000004" y="278.17700000000013" as="targetPoint"/>
                    </mxGeometry>
                </mxCell>
                <mxCell id="F8TEMaA6kwzKf-yMe2iA-11" value="目标版本号和获取层级" style="endArrow=classic;html=1;exitX=1;exitY=0.095;exitDx=0;exitDy=0;exitPerimeter=0;entryX=-0.053;entryY=0.096;entryDx=0;entryDy=0;entryPerimeter=0;fontSize=10;" parent="F8TEMaA6kwzKf-yMe2iA-1" edge="1">
                    <mxGeometry width="50" height="50" relative="1" as="geometry">
                        <mxPoint x="235" y="215.95000000000005" as="sourcePoint"/>
                        <mxPoint x="364.47" y="216.15999999999985" as="targetPoint"/>
                    </mxGeometry>
                </mxCell>
            </root>
        </mxGraphModel>
    </diagram>
    <diagram id="VKBzrGqSGBE1cAQcwdUc" name="文件获取">
        <mxGraphModel dx="902" dy="849" grid="1" gridSize="10" guides="1" tooltips="1" connect="1" arrows="1" fold="1" page="1" pageScale="1" pageWidth="827" pageHeight="1169" math="0" shadow="0">
            <root>
                <mxCell id="AcSwezaLpe4zgufFVLK8-0"/>
                <mxCell id="AcSwezaLpe4zgufFVLK8-1" parent="AcSwezaLpe4zgufFVLK8-0"/>
                <mxCell id="AcSwezaLpe4zgufFVLK8-2" value="配置端" style="shape=umlLifeline;perimeter=lifelinePerimeter;whiteSpace=wrap;html=1;container=1;collapsible=0;recursiveResize=0;outlineConnect=0;fontSize=10;" parent="AcSwezaLpe4zgufFVLK8-1" vertex="1">
                    <mxGeometry x="180" y="130" width="100" height="220" as="geometry"/>
                </mxCell>
                <mxCell id="AcSwezaLpe4zgufFVLK8-3" value="" style="html=1;points=[];perimeter=orthogonalPerimeter;fontSize=10;" parent="AcSwezaLpe4zgufFVLK8-2" vertex="1">
                    <mxGeometry x="45" y="50" width="10" height="150" as="geometry"/>
                </mxCell>
                <mxCell id="AcSwezaLpe4zgufFVLK8-4" value="配置服务" style="shape=umlLifeline;perimeter=lifelinePerimeter;whiteSpace=wrap;html=1;container=1;collapsible=0;recursiveResize=0;outlineConnect=0;fontSize=10;" parent="AcSwezaLpe4zgufFVLK8-1" vertex="1">
                    <mxGeometry x="320" y="130" width="100" height="220" as="geometry"/>
                </mxCell>
                <mxCell id="AcSwezaLpe4zgufFVLK8-5" value="" style="html=1;points=[];perimeter=orthogonalPerimeter;fontSize=10;" parent="AcSwezaLpe4zgufFVLK8-4" vertex="1">
                    <mxGeometry x="45" y="50" width="10" height="150" as="geometry"/>
                </mxCell>
                <mxCell id="AcSwezaLpe4zgufFVLK8-6" value="etcd" style="shape=umlLifeline;perimeter=lifelinePerimeter;whiteSpace=wrap;html=1;container=1;collapsible=0;recursiveResize=0;outlineConnect=0;fontSize=10;" parent="AcSwezaLpe4zgufFVLK8-1" vertex="1">
                    <mxGeometry x="460" y="130" width="100" height="220" as="geometry"/>
                </mxCell>
                <mxCell id="AcSwezaLpe4zgufFVLK8-7" value="" style="html=1;points=[];perimeter=orthogonalPerimeter;fontSize=10;" parent="AcSwezaLpe4zgufFVLK8-6" vertex="1">
                    <mxGeometry x="45" y="50" width="10" height="150" as="geometry"/>
                </mxCell>
                <mxCell id="AcSwezaLpe4zgufFVLK8-8" value="获取目标文件" style="endArrow=classic;html=1;entryX=0;entryY=0.146;entryDx=0;entryDy=0;entryPerimeter=0;exitX=1.01;exitY=0.147;exitDx=0;exitDy=0;exitPerimeter=0;fontSize=10;" parent="AcSwezaLpe4zgufFVLK8-1" edge="1">
                    <mxGeometry width="50" height="50" relative="1" as="geometry">
                        <mxPoint x="375.0999999999999" y="200.21000000000015" as="sourcePoint"/>
                        <mxPoint x="504.9999999999998" y="200.0000000000001" as="targetPoint"/>
                    </mxGeometry>
                </mxCell>
                <mxCell id="AcSwezaLpe4zgufFVLK8-9" value="目标文件内容" style="endArrow=classic;html=1;fontSize=10;entryX=1;entryY=0.346;entryDx=0;entryDy=0;entryPerimeter=0;exitX=0;exitY=0.346;exitDx=0;exitDy=0;exitPerimeter=0;" parent="AcSwezaLpe4zgufFVLK8-1" edge="1">
                    <mxGeometry width="50" height="50" relative="1" as="geometry">
                        <mxPoint x="505" y="219.99599999999987" as="sourcePoint"/>
                        <mxPoint x="375" y="219.99599999999987" as="targetPoint"/>
                    </mxGeometry>
                </mxCell>
                <mxCell id="AcSwezaLpe4zgufFVLK8-10" value="目标文件内容" style="endArrow=classic;html=1;fontSize=10;exitX=0.481;exitY=0.714;exitDx=0;exitDy=0;exitPerimeter=0;entryX=1.029;entryY=0.347;entryDx=0;entryDy=0;entryPerimeter=0;" parent="AcSwezaLpe4zgufFVLK8-1" edge="1">
                    <mxGeometry width="50" height="50" relative="1" as="geometry">
                        <mxPoint x="364.98" y="310" as="sourcePoint"/>
                        <mxPoint x="235.21000000000004" y="310.17700000000013" as="targetPoint"/>
                    </mxGeometry>
                </mxCell>
                <mxCell id="AcSwezaLpe4zgufFVLK8-11" value="目标文件定位" style="endArrow=classic;html=1;exitX=1;exitY=0.095;exitDx=0;exitDy=0;exitPerimeter=0;entryX=-0.053;entryY=0.096;entryDx=0;entryDy=0;entryPerimeter=0;fontSize=10;" parent="AcSwezaLpe4zgufFVLK8-1" edge="1">
                    <mxGeometry width="50" height="50" relative="1" as="geometry">
                        <mxPoint x="235" y="190" as="sourcePoint"/>
                        <mxPoint x="364.47" y="190.2099999999998" as="targetPoint"/>
                    </mxGeometry>
                </mxCell>
                <mxCell id="AcSwezaLpe4zgufFVLK8-12" value="需要填充" style="shape=umlFrame;whiteSpace=wrap;html=1;width=60;height=15;fontSize=10;" parent="AcSwezaLpe4zgufFVLK8-1" vertex="1">
                    <mxGeometry x="380" y="240" width="120" height="60" as="geometry"/>
                </mxCell>
                <mxCell id="AcSwezaLpe4zgufFVLK8-13" value="填充模板" style="edgeStyle=orthogonalEdgeStyle;rounded=0;orthogonalLoop=1;jettySize=auto;html=1;fontSize=10;" parent="AcSwezaLpe4zgufFVLK8-1" edge="1">
                    <mxGeometry relative="1" as="geometry">
                        <mxPoint x="374" y="280" as="targetPoint"/>
                        <Array as="points">
                            <mxPoint x="414" y="260"/>
                            <mxPoint x="414" y="280"/>
                        </Array>
                        <mxPoint x="374" y="260" as="sourcePoint"/>
                    </mxGeometry>
                </mxCell>
            </root>
        </mxGraphModel>
    </diagram>
    <diagram id="XPVHQCllqoGDHoxQWEYh" name="缓存流程图">
        <mxGraphModel dx="902" dy="849" grid="1" gridSize="10" guides="1" tooltips="1" connect="1" arrows="1" fold="1" page="1" pageScale="1" pageWidth="827" pageHeight="1169" math="0" shadow="0">
            <root>
                <mxCell id="3PLTevk2lrOj02cwh6i0-0"/>
                <mxCell id="3PLTevk2lrOj02cwh6i0-1" parent="3PLTevk2lrOj02cwh6i0-0"/>
                <mxCell id="3PLTevk2lrOj02cwh6i0-2" style="edgeStyle=orthogonalEdgeStyle;rounded=0;orthogonalLoop=1;jettySize=auto;html=1;exitX=0.5;exitY=1;exitDx=0;exitDy=0;exitPerimeter=0;entryX=0.5;entryY=0;entryDx=0;entryDy=0;" parent="3PLTevk2lrOj02cwh6i0-1" source="3PLTevk2lrOj02cwh6i0-3" target="3PLTevk2lrOj02cwh6i0-5" edge="1">
                    <mxGeometry relative="1" as="geometry"/>
                </mxCell>
                <mxCell id="3PLTevk2lrOj02cwh6i0-3" value="&lt;font style=&quot;font-size: 14px&quot;&gt;开始&lt;/font&gt;" style="strokeWidth=2;html=1;shape=mxgraph.flowchart.terminator;whiteSpace=wrap;" parent="3PLTevk2lrOj02cwh6i0-1" vertex="1">
                    <mxGeometry x="110" y="20" width="100" height="50" as="geometry"/>
                </mxCell>
                <mxCell id="3PLTevk2lrOj02cwh6i0-4" style="edgeStyle=orthogonalEdgeStyle;rounded=0;orthogonalLoop=1;jettySize=auto;html=1;entryX=0.5;entryY=0;entryDx=0;entryDy=0;entryPerimeter=0;" parent="3PLTevk2lrOj02cwh6i0-1" source="3PLTevk2lrOj02cwh6i0-5" target="3PLTevk2lrOj02cwh6i0-12" edge="1">
                    <mxGeometry relative="1" as="geometry"/>
                </mxCell>
                <mxCell id="3PLTevk2lrOj02cwh6i0-5" value="&lt;font style=&quot;font-size: 14px&quot;&gt;解压缩&lt;/font&gt;" style="rounded=1;whiteSpace=wrap;html=1;absoluteArcSize=1;arcSize=14;strokeWidth=2;" parent="3PLTevk2lrOj02cwh6i0-1" vertex="1">
                    <mxGeometry x="97.5" y="110" width="125" height="50" as="geometry"/>
                </mxCell>
                <mxCell id="3PLTevk2lrOj02cwh6i0-6" style="edgeStyle=orthogonalEdgeStyle;rounded=0;orthogonalLoop=1;jettySize=auto;html=1;entryX=0.5;entryY=0;entryDx=0;entryDy=0;entryPerimeter=0;" parent="3PLTevk2lrOj02cwh6i0-1" source="3PLTevk2lrOj02cwh6i0-7" target="3PLTevk2lrOj02cwh6i0-18" edge="1">
                    <mxGeometry relative="1" as="geometry"/>
                </mxCell>
                <mxCell id="3PLTevk2lrOj02cwh6i0-7" value="&lt;font style=&quot;font-size: 14px&quot;&gt;事务提交&lt;/font&gt;" style="rounded=1;whiteSpace=wrap;html=1;absoluteArcSize=1;arcSize=14;strokeWidth=2;" parent="3PLTevk2lrOj02cwh6i0-1" vertex="1">
                    <mxGeometry x="95" y="530" width="130" height="60" as="geometry"/>
                </mxCell>
                <mxCell id="3PLTevk2lrOj02cwh6i0-8" style="edgeStyle=orthogonalEdgeStyle;rounded=0;orthogonalLoop=1;jettySize=auto;html=1;entryX=0.5;entryY=0;entryDx=0;entryDy=0;entryPerimeter=0;" parent="3PLTevk2lrOj02cwh6i0-1" source="3PLTevk2lrOj02cwh6i0-9" target="3PLTevk2lrOj02cwh6i0-15" edge="1">
                    <mxGeometry relative="1" as="geometry"/>
                </mxCell>
                <mxCell id="3PLTevk2lrOj02cwh6i0-9" value="&lt;font style=&quot;font-size: 14px&quot;&gt;获取所有模板文件&lt;/font&gt;" style="rounded=1;whiteSpace=wrap;html=1;absoluteArcSize=1;arcSize=14;strokeWidth=2;" parent="3PLTevk2lrOj02cwh6i0-1" vertex="1">
                    <mxGeometry x="95" y="310" width="130" height="60" as="geometry"/>
                </mxCell>
                <mxCell id="3PLTevk2lrOj02cwh6i0-10" style="edgeStyle=orthogonalEdgeStyle;rounded=0;orthogonalLoop=1;jettySize=auto;html=1;entryX=0.5;entryY=0;entryDx=0;entryDy=0;" parent="3PLTevk2lrOj02cwh6i0-1" source="3PLTevk2lrOj02cwh6i0-12" target="3PLTevk2lrOj02cwh6i0-9" edge="1">
                    <mxGeometry relative="1" as="geometry"/>
                </mxCell>
                <mxCell id="3PLTevk2lrOj02cwh6i0-11" style="edgeStyle=orthogonalEdgeStyle;rounded=0;orthogonalLoop=1;jettySize=auto;html=1;entryX=0.5;entryY=0;entryDx=0;entryDy=0;" parent="3PLTevk2lrOj02cwh6i0-1" source="3PLTevk2lrOj02cwh6i0-12" target="3PLTevk2lrOj02cwh6i0-17" edge="1">
                    <mxGeometry relative="1" as="geometry"/>
                </mxCell>
                <mxCell id="3PLTevk2lrOj02cwh6i0-12" value="&lt;span style=&quot;font-size: 14px&quot;&gt;根目录是否唯一？&lt;/span&gt;" style="strokeWidth=2;html=1;shape=mxgraph.flowchart.decision;whiteSpace=wrap;" parent="3PLTevk2lrOj02cwh6i0-1" vertex="1">
                    <mxGeometry x="75" y="200" width="170" height="70" as="geometry"/>
                </mxCell>
                <mxCell id="3PLTevk2lrOj02cwh6i0-13" style="edgeStyle=orthogonalEdgeStyle;rounded=0;orthogonalLoop=1;jettySize=auto;html=1;entryX=0.5;entryY=0;entryDx=0;entryDy=0;" parent="3PLTevk2lrOj02cwh6i0-1" source="3PLTevk2lrOj02cwh6i0-15" target="3PLTevk2lrOj02cwh6i0-7" edge="1">
                    <mxGeometry relative="1" as="geometry"/>
                </mxCell>
                <mxCell id="3PLTevk2lrOj02cwh6i0-14" style="edgeStyle=orthogonalEdgeStyle;rounded=0;orthogonalLoop=1;jettySize=auto;html=1;entryX=0.5;entryY=0;entryDx=0;entryDy=0;" parent="3PLTevk2lrOj02cwh6i0-1" source="3PLTevk2lrOj02cwh6i0-15" target="3PLTevk2lrOj02cwh6i0-17" edge="1">
                    <mxGeometry relative="1" as="geometry"/>
                </mxCell>
                <mxCell id="3PLTevk2lrOj02cwh6i0-15" value="&lt;font style=&quot;font-size: 14px&quot;&gt;填充所有模板文件成功？&lt;/font&gt;" style="strokeWidth=2;html=1;shape=mxgraph.flowchart.decision;whiteSpace=wrap;" parent="3PLTevk2lrOj02cwh6i0-1" vertex="1">
                    <mxGeometry x="70" y="410" width="180" height="80" as="geometry"/>
                </mxCell>
                <mxCell id="3PLTevk2lrOj02cwh6i0-16" style="edgeStyle=orthogonalEdgeStyle;rounded=0;orthogonalLoop=1;jettySize=auto;html=1;entryX=0.5;entryY=0;entryDx=0;entryDy=0;entryPerimeter=0;" parent="3PLTevk2lrOj02cwh6i0-1" source="3PLTevk2lrOj02cwh6i0-17" target="3PLTevk2lrOj02cwh6i0-18" edge="1">
                    <mxGeometry relative="1" as="geometry">
                        <Array as="points">
                            <mxPoint x="365" y="610"/>
                            <mxPoint x="160" y="610"/>
                        </Array>
                    </mxGeometry>
                </mxCell>
                <mxCell id="3PLTevk2lrOj02cwh6i0-17" value="&lt;font style=&quot;font-size: 14px&quot;&gt;返回错误&lt;/font&gt;" style="rounded=1;whiteSpace=wrap;html=1;absoluteArcSize=1;arcSize=14;strokeWidth=2;" parent="3PLTevk2lrOj02cwh6i0-1" vertex="1">
                    <mxGeometry x="300" y="520" width="130" height="60" as="geometry"/>
                </mxCell>
                <mxCell id="3PLTevk2lrOj02cwh6i0-18" value="&lt;font style=&quot;font-size: 14px&quot;&gt;结束&lt;/font&gt;" style="strokeWidth=2;html=1;shape=mxgraph.flowchart.terminator;whiteSpace=wrap;" parent="3PLTevk2lrOj02cwh6i0-1" vertex="1">
                    <mxGeometry x="110" y="640" width="100" height="50" as="geometry"/>
                </mxCell>
                <mxCell id="3PLTevk2lrOj02cwh6i0-19" value="&lt;font style=&quot;font-size: 13px&quot;&gt;否&lt;/font&gt;" style="text;html=1;strokeColor=none;fillColor=none;align=center;verticalAlign=middle;whiteSpace=wrap;rounded=0;" parent="3PLTevk2lrOj02cwh6i0-1" vertex="1">
                    <mxGeometry x="260" y="200" width="40" height="20" as="geometry"/>
                </mxCell>
                <mxCell id="3PLTevk2lrOj02cwh6i0-20" value="&lt;font style=&quot;font-size: 13px&quot;&gt;否&lt;/font&gt;" style="text;html=1;strokeColor=none;fillColor=none;align=center;verticalAlign=middle;whiteSpace=wrap;rounded=0;" parent="3PLTevk2lrOj02cwh6i0-1" vertex="1">
                    <mxGeometry x="260" y="420" width="40" height="20" as="geometry"/>
                </mxCell>
                <mxCell id="3PLTevk2lrOj02cwh6i0-21" value="&lt;font style=&quot;font-size: 13px&quot;&gt;是&lt;/font&gt;" style="text;html=1;strokeColor=none;fillColor=none;align=center;verticalAlign=middle;whiteSpace=wrap;rounded=0;" parent="3PLTevk2lrOj02cwh6i0-1" vertex="1">
                    <mxGeometry x="160" y="270" width="40" height="20" as="geometry"/>
                </mxCell>
                <mxCell id="3PLTevk2lrOj02cwh6i0-22" value="&lt;font style=&quot;font-size: 13px&quot;&gt;是&lt;/font&gt;" style="text;html=1;strokeColor=none;fillColor=none;align=center;verticalAlign=middle;whiteSpace=wrap;rounded=0;" parent="3PLTevk2lrOj02cwh6i0-1" vertex="1">
                    <mxGeometry x="160" y="490" width="40" height="20" as="geometry"/>
                </mxCell>
            </root>
        </mxGraphModel>
    </diagram>
    <diagram id="kCRND8Rw5ryK152V8U4N" name="删除缓存配置">
        <mxGraphModel dx="902" dy="849" grid="1" gridSize="10" guides="1" tooltips="1" connect="1" arrows="1" fold="1" page="1" pageScale="1" pageWidth="827" pageHeight="1169" math="0" shadow="0">
            <root>
                <mxCell id="5UoBHiPBZJTHR5p0b21u-0"/>
                <mxCell id="5UoBHiPBZJTHR5p0b21u-1" parent="5UoBHiPBZJTHR5p0b21u-0"/>
                <mxCell id="5UoBHiPBZJTHR5p0b21u-2" value="配置端" style="shape=umlLifeline;perimeter=lifelinePerimeter;whiteSpace=wrap;html=1;container=1;collapsible=0;recursiveResize=0;outlineConnect=0;fontSize=10;" parent="5UoBHiPBZJTHR5p0b21u-1" vertex="1">
                    <mxGeometry x="180" y="130" width="100" height="150" as="geometry"/>
                </mxCell>
                <mxCell id="5UoBHiPBZJTHR5p0b21u-3" value="" style="html=1;points=[];perimeter=orthogonalPerimeter;fontSize=10;" parent="5UoBHiPBZJTHR5p0b21u-2" vertex="1">
                    <mxGeometry x="45" y="50" width="10" height="90" as="geometry"/>
                </mxCell>
                <mxCell id="5UoBHiPBZJTHR5p0b21u-4" value="配置服务" style="shape=umlLifeline;perimeter=lifelinePerimeter;whiteSpace=wrap;html=1;container=1;collapsible=0;recursiveResize=0;outlineConnect=0;fontSize=10;" parent="5UoBHiPBZJTHR5p0b21u-1" vertex="1">
                    <mxGeometry x="320" y="130" width="100" height="150" as="geometry"/>
                </mxCell>
                <mxCell id="5UoBHiPBZJTHR5p0b21u-5" value="" style="html=1;points=[];perimeter=orthogonalPerimeter;fontSize=10;" parent="5UoBHiPBZJTHR5p0b21u-4" vertex="1">
                    <mxGeometry x="45" y="50" width="10" height="90" as="geometry"/>
                </mxCell>
                <mxCell id="5UoBHiPBZJTHR5p0b21u-6" value="删除配置" style="rounded=0;orthogonalLoop=1;jettySize=auto;html=1;fontSize=10;" parent="5UoBHiPBZJTHR5p0b21u-1" edge="1">
                    <mxGeometry relative="1" as="geometry">
                        <mxPoint x="235.0999999999999" y="200" as="sourcePoint"/>
                        <mxPoint x="365.0999999999999" y="200" as="targetPoint"/>
                    </mxGeometry>
                </mxCell>
                <mxCell id="5UoBHiPBZJTHR5p0b21u-7" value="etcd" style="shape=umlLifeline;perimeter=lifelinePerimeter;whiteSpace=wrap;html=1;container=1;collapsible=0;recursiveResize=0;outlineConnect=0;fontSize=10;" parent="5UoBHiPBZJTHR5p0b21u-1" vertex="1">
                    <mxGeometry x="460" y="130" width="100" height="150" as="geometry"/>
                </mxCell>
                <mxCell id="5UoBHiPBZJTHR5p0b21u-8" value="" style="html=1;points=[];perimeter=orthogonalPerimeter;fontSize=10;" parent="5UoBHiPBZJTHR5p0b21u-7" vertex="1">
                    <mxGeometry x="45" y="50" width="10" height="90" as="geometry"/>
                </mxCell>
                <mxCell id="5UoBHiPBZJTHR5p0b21u-9" value="删除用户缓存配置" style="edgeStyle=orthogonalEdgeStyle;rounded=0;orthogonalLoop=1;jettySize=auto;html=1;fontSize=10;" parent="5UoBHiPBZJTHR5p0b21u-1" edge="1">
                    <mxGeometry relative="1" as="geometry">
                        <mxPoint x="504" y="230" as="targetPoint"/>
                        <Array as="points">
                            <mxPoint x="504" y="230"/>
                        </Array>
                        <mxPoint x="375" y="230" as="sourcePoint"/>
                    </mxGeometry>
                </mxCell>
                <mxCell id="5UoBHiPBZJTHR5p0b21u-10" value="提交结果" style="endArrow=classic;html=1;fontSize=10;entryX=1;entryY=0.346;entryDx=0;entryDy=0;entryPerimeter=0;exitX=0;exitY=0.346;exitDx=0;exitDy=0;exitPerimeter=0;" parent="5UoBHiPBZJTHR5p0b21u-1" edge="1">
                    <mxGeometry width="50" height="50" relative="1" as="geometry">
                        <mxPoint x="365" y="259.9960000000001" as="sourcePoint"/>
                        <mxPoint x="235" y="259.9960000000001" as="targetPoint"/>
                    </mxGeometry>
                </mxCell>
            </root>
        </mxGraphModel>
    </diagram>
    <diagram id="zjIbmvHR6GGVK5EntThw" name="版本提交">
        <mxGraphModel dx="902" dy="849" grid="1" gridSize="10" guides="1" tooltips="1" connect="1" arrows="1" fold="1" page="1" pageScale="1" pageWidth="827" pageHeight="1169" math="0" shadow="0">
            <root>
                <mxCell id="dZWWV4_SykArwziIxY-8-0"/>
                <mxCell id="dZWWV4_SykArwziIxY-8-1" parent="dZWWV4_SykArwziIxY-8-0"/>
                <mxCell id="dZWWV4_SykArwziIxY-8-2" value="配置端" style="shape=umlLifeline;perimeter=lifelinePerimeter;whiteSpace=wrap;html=1;container=1;collapsible=0;recursiveResize=0;outlineConnect=0;fontSize=10;" parent="dZWWV4_SykArwziIxY-8-1" vertex="1">
                    <mxGeometry x="180" y="170" width="100" height="330" as="geometry"/>
                </mxCell>
                <mxCell id="dZWWV4_SykArwziIxY-8-3" value="" style="html=1;points=[];perimeter=orthogonalPerimeter;fontSize=10;" parent="dZWWV4_SykArwziIxY-8-2" vertex="1">
                    <mxGeometry x="45" y="60" width="10" height="250" as="geometry"/>
                </mxCell>
                <mxCell id="dZWWV4_SykArwziIxY-8-4" value="配置服务" style="shape=umlLifeline;perimeter=lifelinePerimeter;whiteSpace=wrap;html=1;container=1;collapsible=0;recursiveResize=0;outlineConnect=0;fontSize=10;" parent="dZWWV4_SykArwziIxY-8-1" vertex="1">
                    <mxGeometry x="320" y="170" width="100" height="330" as="geometry"/>
                </mxCell>
                <mxCell id="dZWWV4_SykArwziIxY-8-5" value="" style="html=1;points=[];perimeter=orthogonalPerimeter;fontSize=10;" parent="dZWWV4_SykArwziIxY-8-4" vertex="1">
                    <mxGeometry x="45" y="60" width="10" height="250" as="geometry"/>
                </mxCell>
                <mxCell id="dZWWV4_SykArwziIxY-8-6" value="提交版本" style="edgeStyle=orthogonalEdgeStyle;rounded=0;orthogonalLoop=1;jettySize=auto;html=1;fontSize=10;" parent="dZWWV4_SykArwziIxY-8-1" edge="1">
                    <mxGeometry relative="1" as="geometry">
                        <Array as="points">
                            <mxPoint x="300" y="251"/>
                            <mxPoint x="300" y="251"/>
                        </Array>
                        <mxPoint x="235" y="251" as="sourcePoint"/>
                        <mxPoint x="365" y="251" as="targetPoint"/>
                    </mxGeometry>
                </mxCell>
                <mxCell id="dZWWV4_SykArwziIxY-8-7" value="etcd" style="shape=umlLifeline;perimeter=lifelinePerimeter;whiteSpace=wrap;html=1;container=1;collapsible=0;recursiveResize=0;outlineConnect=0;fontSize=10;" parent="dZWWV4_SykArwziIxY-8-1" vertex="1">
                    <mxGeometry x="460" y="170" width="100" height="330" as="geometry"/>
                </mxCell>
                <mxCell id="dZWWV4_SykArwziIxY-8-8" value="" style="html=1;points=[];perimeter=orthogonalPerimeter;fontSize=10;" parent="dZWWV4_SykArwziIxY-8-7" vertex="1">
                    <mxGeometry x="45" y="60" width="10" height="250" as="geometry"/>
                </mxCell>
                <mxCell id="dZWWV4_SykArwziIxY-8-9" value="加锁" style="endArrow=classic;html=1;fontSize=10;" parent="dZWWV4_SykArwziIxY-8-1" edge="1">
                    <mxGeometry width="50" height="50" relative="1" as="geometry">
                        <mxPoint x="375" y="270" as="sourcePoint"/>
                        <mxPoint x="505" y="270" as="targetPoint"/>
                    </mxGeometry>
                </mxCell>
                <mxCell id="dZWWV4_SykArwziIxY-8-10" value="加锁成功" style="shape=umlFrame;whiteSpace=wrap;html=1;width=60;height=15;fontSize=10;" parent="dZWWV4_SykArwziIxY-8-1" vertex="1">
                    <mxGeometry x="240" y="280" width="260" height="145" as="geometry"/>
                </mxCell>
                <mxCell id="dZWWV4_SykArwziIxY-8-11" value="加锁失败" style="shape=umlFrame;whiteSpace=wrap;html=1;width=60;height=15;fontSize=10;" parent="dZWWV4_SykArwziIxY-8-1" vertex="1">
                    <mxGeometry x="240" y="435" width="120" height="35" as="geometry"/>
                </mxCell>
                <mxCell id="dZWWV4_SykArwziIxY-8-12" value="提交失败" style="endArrow=classic;html=1;fontSize=10;" parent="dZWWV4_SykArwziIxY-8-1" edge="1">
                    <mxGeometry width="50" height="50" relative="1" as="geometry">
                        <mxPoint x="365" y="457.1600000000001" as="sourcePoint"/>
                        <mxPoint x="235" y="457.1600000000001" as="targetPoint"/>
                    </mxGeometry>
                </mxCell>
                <mxCell id="dZWWV4_SykArwziIxY-8-13" value="获取用户配置缓存" style="edgeStyle=orthogonalEdgeStyle;rounded=0;orthogonalLoop=1;jettySize=auto;html=1;entryX=-0.1;entryY=0.235;entryDx=0;entryDy=0;entryPerimeter=0;exitX=1;exitY=0.235;exitDx=0;exitDy=0;exitPerimeter=0;fontSize=10;" parent="dZWWV4_SykArwziIxY-8-1" edge="1">
                    <mxGeometry relative="1" as="geometry">
                        <mxPoint x="375" y="295" as="sourcePoint"/>
                        <mxPoint x="504" y="295" as="targetPoint"/>
                        <Array as="points"/>
                    </mxGeometry>
                </mxCell>
                <mxCell id="dZWWV4_SykArwziIxY-8-14" value="配置缓存" style="edgeStyle=orthogonalEdgeStyle;rounded=0;orthogonalLoop=1;jettySize=auto;html=1;startArrow=classic;startFill=1;endArrow=none;endFill=0;fontSize=10;" parent="dZWWV4_SykArwziIxY-8-1" edge="1">
                    <mxGeometry relative="1" as="geometry">
                        <mxPoint x="504" y="320" as="targetPoint"/>
                        <Array as="points">
                            <mxPoint x="504" y="320"/>
                        </Array>
                        <mxPoint x="375" y="320" as="sourcePoint"/>
                    </mxGeometry>
                </mxCell>
                <mxCell id="dZWWV4_SykArwziIxY-8-15" value="将配置缓存&lt;br style=&quot;font-size: 10px;&quot;&gt;作为最新版本写入" style="endArrow=classic;html=1;fontSize=10;" parent="dZWWV4_SykArwziIxY-8-1" edge="1">
                    <mxGeometry width="50" height="50" relative="1" as="geometry">
                        <mxPoint x="375" y="345" as="sourcePoint"/>
                        <mxPoint x="505" y="345" as="targetPoint"/>
                    </mxGeometry>
                </mxCell>
                <mxCell id="dZWWV4_SykArwziIxY-8-16" value="解锁" style="endArrow=none;html=1;startArrow=classic;startFill=1;endFill=0;fontSize=10;" parent="dZWWV4_SykArwziIxY-8-1" edge="1">
                    <mxGeometry width="50" height="50" relative="1" as="geometry">
                        <mxPoint x="375" y="395" as="sourcePoint"/>
                        <mxPoint x="505" y="395" as="targetPoint"/>
                        <Array as="points">
                            <mxPoint x="440" y="395"/>
                        </Array>
                    </mxGeometry>
                </mxCell>
                <mxCell id="dZWWV4_SykArwziIxY-8-17" value="提交成功，返回版本号" style="endArrow=none;html=1;startArrow=classic;startFill=1;endFill=0;fontSize=10;" parent="dZWWV4_SykArwziIxY-8-1" edge="1">
                    <mxGeometry width="50" height="50" relative="1" as="geometry">
                        <mxPoint x="235" y="415" as="sourcePoint"/>
                        <mxPoint x="365" y="415" as="targetPoint"/>
                    </mxGeometry>
                </mxCell>
                <mxCell id="dZWWV4_SykArwziIxY-8-18" value="清除用户配置缓存" style="endArrow=classic;html=1;fontSize=10;" parent="dZWWV4_SykArwziIxY-8-1" edge="1">
                    <mxGeometry width="50" height="50" relative="1" as="geometry">
                        <mxPoint x="375" y="370" as="sourcePoint"/>
                        <mxPoint x="505" y="370" as="targetPoint"/>
                    </mxGeometry>
                </mxCell>
            </root>
        </mxGraphModel>
    </diagram>
    <diagram id="j6jGHSdwGbfvuIpWfSsX" name="导入配置">
        <mxGraphModel dx="902" dy="849" grid="1" gridSize="10" guides="1" tooltips="1" connect="1" arrows="1" fold="1" page="1" pageScale="1" pageWidth="827" pageHeight="1169" math="0" shadow="0">
            <root>
                <mxCell id="eMn7CYcRHx03TqhwSrnG-0"/>
                <mxCell id="eMn7CYcRHx03TqhwSrnG-1" parent="eMn7CYcRHx03TqhwSrnG-0"/>
                <mxCell id="eMn7CYcRHx03TqhwSrnG-2" value="配置端" style="shape=umlLifeline;perimeter=lifelinePerimeter;whiteSpace=wrap;html=1;container=1;collapsible=0;recursiveResize=0;outlineConnect=0;fontSize=10;" parent="eMn7CYcRHx03TqhwSrnG-1" vertex="1">
                    <mxGeometry x="180" y="130" width="100" height="250" as="geometry"/>
                </mxCell>
                <mxCell id="eMn7CYcRHx03TqhwSrnG-3" value="" style="html=1;points=[];perimeter=orthogonalPerimeter;fontSize=10;" parent="eMn7CYcRHx03TqhwSrnG-2" vertex="1">
                    <mxGeometry x="45" y="50" width="10" height="180" as="geometry"/>
                </mxCell>
                <mxCell id="eMn7CYcRHx03TqhwSrnG-4" value="配置服务" style="shape=umlLifeline;perimeter=lifelinePerimeter;whiteSpace=wrap;html=1;container=1;collapsible=0;recursiveResize=0;outlineConnect=0;fontSize=10;" parent="eMn7CYcRHx03TqhwSrnG-1" vertex="1">
                    <mxGeometry x="320" y="130" width="100" height="250" as="geometry"/>
                </mxCell>
                <mxCell id="eMn7CYcRHx03TqhwSrnG-5" value="" style="html=1;points=[];perimeter=orthogonalPerimeter;fontSize=10;" parent="eMn7CYcRHx03TqhwSrnG-4" vertex="1">
                    <mxGeometry x="45" y="50" width="10" height="180" as="geometry"/>
                </mxCell>
                <mxCell id="eMn7CYcRHx03TqhwSrnG-6" value="校验配置模板" style="edgeStyle=orthogonalEdgeStyle;rounded=0;orthogonalLoop=1;jettySize=auto;html=1;fontSize=10;exitX=0.986;exitY=0.23;exitDx=0;exitDy=0;exitPerimeter=0;" parent="eMn7CYcRHx03TqhwSrnG-4" source="eMn7CYcRHx03TqhwSrnG-5" edge="1">
                    <mxGeometry relative="1" as="geometry">
                        <mxPoint x="54" y="109" as="targetPoint"/>
                        <Array as="points">
                            <mxPoint x="120" y="80"/>
                            <mxPoint x="120" y="109"/>
                        </Array>
                        <mxPoint x="60" y="80" as="sourcePoint"/>
                    </mxGeometry>
                </mxCell>
                <mxCell id="eMn7CYcRHx03TqhwSrnG-7" value="导入配置文件" style="rounded=0;orthogonalLoop=1;jettySize=auto;html=1;fontSize=10;" parent="eMn7CYcRHx03TqhwSrnG-1" edge="1">
                    <mxGeometry relative="1" as="geometry">
                        <mxPoint x="235.0999999999999" y="200" as="sourcePoint"/>
                        <mxPoint x="365.0999999999999" y="200" as="targetPoint"/>
                    </mxGeometry>
                </mxCell>
                <mxCell id="eMn7CYcRHx03TqhwSrnG-8" value="etcd" style="shape=umlLifeline;perimeter=lifelinePerimeter;whiteSpace=wrap;html=1;container=1;collapsible=0;recursiveResize=0;outlineConnect=0;fontSize=10;" parent="eMn7CYcRHx03TqhwSrnG-1" vertex="1">
                    <mxGeometry x="460" y="130" width="100" height="250" as="geometry"/>
                </mxCell>
                <mxCell id="eMn7CYcRHx03TqhwSrnG-9" value="" style="html=1;points=[];perimeter=orthogonalPerimeter;fontSize=10;" parent="eMn7CYcRHx03TqhwSrnG-8" vertex="1">
                    <mxGeometry x="45" y="50" width="10" height="160" as="geometry"/>
                </mxCell>
                <mxCell id="eMn7CYcRHx03TqhwSrnG-10" value="缓存用户配置文件" style="edgeStyle=orthogonalEdgeStyle;rounded=0;orthogonalLoop=1;jettySize=auto;html=1;fontSize=10;" parent="eMn7CYcRHx03TqhwSrnG-1" edge="1">
                    <mxGeometry relative="1" as="geometry">
                        <mxPoint x="504.5" y="270" as="targetPoint"/>
                        <Array as="points">
                            <mxPoint x="504.5" y="270"/>
                        </Array>
                        <mxPoint x="375.5" y="270" as="sourcePoint"/>
                    </mxGeometry>
                </mxCell>
                <mxCell id="eMn7CYcRHx03TqhwSrnG-11" value="返回结果" style="endArrow=classic;html=1;fontSize=10;entryX=1;entryY=0.346;entryDx=0;entryDy=0;entryPerimeter=0;exitX=0;exitY=0.346;exitDx=0;exitDy=0;exitPerimeter=0;" parent="eMn7CYcRHx03TqhwSrnG-1" edge="1">
                    <mxGeometry width="50" height="50" relative="1" as="geometry">
                        <mxPoint x="365" y="284.996" as="sourcePoint"/>
                        <mxPoint x="235" y="284.996" as="targetPoint"/>
                    </mxGeometry>
                </mxCell>
                <mxCell id="eMn7CYcRHx03TqhwSrnG-12" value="校验成功" style="shape=umlFrame;whiteSpace=wrap;html=1;width=60;height=15;fontSize=10;" parent="eMn7CYcRHx03TqhwSrnG-1" vertex="1">
                    <mxGeometry x="250" y="250" width="240" height="50" as="geometry"/>
                </mxCell>
                <mxCell id="eMn7CYcRHx03TqhwSrnG-13" value="校验失败" style="shape=umlFrame;whiteSpace=wrap;html=1;width=60;height=15;fontSize=10;" parent="eMn7CYcRHx03TqhwSrnG-1" vertex="1">
                    <mxGeometry x="250" y="320" width="110" height="35" as="geometry"/>
                </mxCell>
                <mxCell id="eMn7CYcRHx03TqhwSrnG-14" value="返回结果" style="endArrow=classic;html=1;fontSize=10;exitX=-0.02;exitY=0.887;exitDx=0;exitDy=0;exitPerimeter=0;" parent="eMn7CYcRHx03TqhwSrnG-1" source="eMn7CYcRHx03TqhwSrnG-5" edge="1">
                    <mxGeometry width="50" height="50" relative="1" as="geometry">
                        <mxPoint x="360" y="340" as="sourcePoint"/>
                        <mxPoint x="234" y="340" as="targetPoint"/>
                    </mxGeometry>
                </mxCell>
            </root>
        </mxGraphModel>
    </diagram>
    <diagram id="RGRkPVsc7k_39oltak9P" name="导出配置">
        <mxGraphModel dx="902" dy="849" grid="1" gridSize="10" guides="1" tooltips="1" connect="1" arrows="1" fold="1" page="1" pageScale="1" pageWidth="827" pageHeight="1169" math="0" shadow="0">
            <root>
                <mxCell id="dCAQY4gOOooELnydBXsO-0"/>
                <mxCell id="dCAQY4gOOooELnydBXsO-1" parent="dCAQY4gOOooELnydBXsO-0"/>
                <mxCell id="dCAQY4gOOooELnydBXsO-2" value="配置端" style="shape=umlLifeline;perimeter=lifelinePerimeter;whiteSpace=wrap;html=1;container=1;collapsible=0;recursiveResize=0;outlineConnect=0;fontSize=10;" parent="dCAQY4gOOooELnydBXsO-1" vertex="1">
                    <mxGeometry x="180" y="130" width="100" height="170" as="geometry"/>
                </mxCell>
                <mxCell id="dCAQY4gOOooELnydBXsO-3" value="" style="html=1;points=[];perimeter=orthogonalPerimeter;fontSize=10;" parent="dCAQY4gOOooELnydBXsO-2" vertex="1">
                    <mxGeometry x="45" y="50" width="10" height="110" as="geometry"/>
                </mxCell>
                <mxCell id="dCAQY4gOOooELnydBXsO-4" value="配置服务" style="shape=umlLifeline;perimeter=lifelinePerimeter;whiteSpace=wrap;html=1;container=1;collapsible=0;recursiveResize=0;outlineConnect=0;fontSize=10;" parent="dCAQY4gOOooELnydBXsO-1" vertex="1">
                    <mxGeometry x="320" y="130" width="100" height="170" as="geometry"/>
                </mxCell>
                <mxCell id="dCAQY4gOOooELnydBXsO-5" value="" style="html=1;points=[];perimeter=orthogonalPerimeter;fontSize=10;" parent="dCAQY4gOOooELnydBXsO-4" vertex="1">
                    <mxGeometry x="45" y="50" width="10" height="110" as="geometry"/>
                </mxCell>
                <mxCell id="dCAQY4gOOooELnydBXsO-6" value="填充模板" style="edgeStyle=orthogonalEdgeStyle;rounded=0;orthogonalLoop=1;jettySize=auto;html=1;fontSize=10;" parent="dCAQY4gOOooELnydBXsO-4" edge="1">
                    <mxGeometry relative="1" as="geometry">
                        <mxPoint x="55" y="130" as="targetPoint"/>
                        <Array as="points">
                            <mxPoint x="95" y="110"/>
                            <mxPoint x="95" y="130"/>
                        </Array>
                        <mxPoint x="55" y="110" as="sourcePoint"/>
                    </mxGeometry>
                </mxCell>
                <mxCell id="dCAQY4gOOooELnydBXsO-7" value="指定版本号和层级" style="rounded=0;orthogonalLoop=1;jettySize=auto;html=1;fontSize=10;" parent="dCAQY4gOOooELnydBXsO-1" edge="1">
                    <mxGeometry relative="1" as="geometry">
                        <mxPoint x="235.0999999999999" y="200" as="sourcePoint"/>
                        <mxPoint x="365.0999999999999" y="200" as="targetPoint"/>
                    </mxGeometry>
                </mxCell>
                <mxCell id="dCAQY4gOOooELnydBXsO-8" value="etcd" style="shape=umlLifeline;perimeter=lifelinePerimeter;whiteSpace=wrap;html=1;container=1;collapsible=0;recursiveResize=0;outlineConnect=0;fontSize=10;" parent="dCAQY4gOOooELnydBXsO-1" vertex="1">
                    <mxGeometry x="460" y="130" width="100" height="170" as="geometry"/>
                </mxCell>
                <mxCell id="dCAQY4gOOooELnydBXsO-9" value="" style="html=1;points=[];perimeter=orthogonalPerimeter;fontSize=10;" parent="dCAQY4gOOooELnydBXsO-8" vertex="1">
                    <mxGeometry x="45" y="50" width="10" height="60" as="geometry"/>
                </mxCell>
                <mxCell id="dCAQY4gOOooELnydBXsO-10" value="获取配置文件" style="edgeStyle=orthogonalEdgeStyle;rounded=0;orthogonalLoop=1;jettySize=auto;html=1;fontSize=10;" parent="dCAQY4gOOooELnydBXsO-1" edge="1">
                    <mxGeometry relative="1" as="geometry">
                        <mxPoint x="504" y="210" as="targetPoint"/>
                        <Array as="points">
                            <mxPoint x="504" y="210"/>
                        </Array>
                        <mxPoint x="375" y="210" as="sourcePoint"/>
                    </mxGeometry>
                </mxCell>
                <mxCell id="dCAQY4gOOooELnydBXsO-11" value="返回目标配置文件" style="endArrow=classic;html=1;fontSize=10;entryX=1;entryY=0.346;entryDx=0;entryDy=0;entryPerimeter=0;exitX=0;exitY=0.346;exitDx=0;exitDy=0;exitPerimeter=0;" parent="dCAQY4gOOooELnydBXsO-1" edge="1">
                    <mxGeometry width="50" height="50" relative="1" as="geometry">
                        <mxPoint x="365" y="269.996" as="sourcePoint"/>
                        <mxPoint x="235" y="269.996" as="targetPoint"/>
                    </mxGeometry>
                </mxCell>
                <mxCell id="dCAQY4gOOooELnydBXsO-12" value="返回配置文件" style="endArrow=classic;html=1;fontSize=10;entryX=1.02;entryY=0.453;entryDx=0;entryDy=0;entryPerimeter=0;exitX=-0.024;exitY=0.833;exitDx=0;exitDy=0;exitPerimeter=0;" parent="dCAQY4gOOooELnydBXsO-1" source="dCAQY4gOOooELnydBXsO-9" target="dCAQY4gOOooELnydBXsO-5" edge="1">
                    <mxGeometry width="50" height="50" relative="1" as="geometry">
                        <mxPoint x="500" y="230" as="sourcePoint"/>
                        <mxPoint x="380" y="230" as="targetPoint"/>
                    </mxGeometry>
                </mxCell>
            </root>
        </mxGraphModel>
    </diagram>
    <diagram id="opyhVdozYJo9qmRN9f1b" name="整体流程图">
        <mxGraphModel dx="673" dy="574" grid="1" gridSize="10" guides="1" tooltips="1" connect="1" arrows="1" fold="1" page="1" pageScale="1" pageWidth="827" pageHeight="1169" math="0" shadow="0">
            <root>
                <mxCell id="5PBlycJL5ER1Ycoqp78R-0"/>
                <mxCell id="5PBlycJL5ER1Ycoqp78R-1" parent="5PBlycJL5ER1Ycoqp78R-0"/>
                <mxCell id="5PBlycJL5ER1Ycoqp78R-17" style="edgeStyle=none;html=1;entryX=0.5;entryY=0;entryDx=0;entryDy=0;" edge="1" parent="5PBlycJL5ER1Ycoqp78R-1" source="5PBlycJL5ER1Ycoqp78R-2" target="5PBlycJL5ER1Ycoqp78R-3">
                    <mxGeometry relative="1" as="geometry"/>
                </mxCell>
                <mxCell id="5PBlycJL5ER1Ycoqp78R-2" value="开始" style="strokeWidth=2;html=1;shape=mxgraph.flowchart.terminator;whiteSpace=wrap;" vertex="1" parent="5PBlycJL5ER1Ycoqp78R-1">
                    <mxGeometry x="180" y="50" width="100" height="50" as="geometry"/>
                </mxCell>
                <mxCell id="5PBlycJL5ER1Ycoqp78R-18" style="edgeStyle=none;html=1;entryX=0.5;entryY=0;entryDx=0;entryDy=0;" edge="1" parent="5PBlycJL5ER1Ycoqp78R-1" source="5PBlycJL5ER1Ycoqp78R-3" target="5PBlycJL5ER1Ycoqp78R-4">
                    <mxGeometry relative="1" as="geometry"/>
                </mxCell>
                <mxCell id="5PBlycJL5ER1Ycoqp78R-3" value="接收输入参数" style="rounded=1;whiteSpace=wrap;html=1;absoluteArcSize=1;arcSize=14;strokeWidth=2;" vertex="1" parent="5PBlycJL5ER1Ycoqp78R-1">
                    <mxGeometry x="180" y="150" width="100" height="50" as="geometry"/>
                </mxCell>
                <mxCell id="5PBlycJL5ER1Ycoqp78R-19" style="edgeStyle=none;html=1;entryX=0.5;entryY=0;entryDx=0;entryDy=0;" edge="1" parent="5PBlycJL5ER1Ycoqp78R-1" source="5PBlycJL5ER1Ycoqp78R-4" target="5PBlycJL5ER1Ycoqp78R-5">
                    <mxGeometry relative="1" as="geometry"/>
                </mxCell>
                <mxCell id="5PBlycJL5ER1Ycoqp78R-4" value="扩展部署信息" style="rounded=1;whiteSpace=wrap;html=1;absoluteArcSize=1;arcSize=14;strokeWidth=2;" vertex="1" parent="5PBlycJL5ER1Ycoqp78R-1">
                    <mxGeometry x="180" y="250" width="100" height="50" as="geometry"/>
                </mxCell>
                <mxCell id="5PBlycJL5ER1Ycoqp78R-7" style="edgeStyle=none;html=1;entryX=0.932;entryY=1.013;entryDx=0;entryDy=0;entryPerimeter=0;" edge="1" parent="5PBlycJL5ER1Ycoqp78R-1" source="5PBlycJL5ER1Ycoqp78R-5" target="5PBlycJL5ER1Ycoqp78R-8">
                    <mxGeometry relative="1" as="geometry">
                        <mxPoint x="310" y="375" as="targetPoint"/>
                    </mxGeometry>
                </mxCell>
                <mxCell id="5PBlycJL5ER1Ycoqp78R-5" value="构建部署信息表" style="rounded=1;whiteSpace=wrap;html=1;absoluteArcSize=1;arcSize=14;strokeWidth=2;" vertex="1" parent="5PBlycJL5ER1Ycoqp78R-1">
                    <mxGeometry x="180" y="350" width="100" height="50" as="geometry"/>
                </mxCell>
                <mxCell id="5PBlycJL5ER1Ycoqp78R-20" style="edgeStyle=none;html=1;entryX=0.5;entryY=1;entryDx=0;entryDy=0;" edge="1" parent="5PBlycJL5ER1Ycoqp78R-1" source="5PBlycJL5ER1Ycoqp78R-6" target="5PBlycJL5ER1Ycoqp78R-10">
                    <mxGeometry relative="1" as="geometry"/>
                </mxCell>
                <mxCell id="5PBlycJL5ER1Ycoqp78R-6" value="对每个set并发生成部署信息表，放在内存中" style="rounded=1;whiteSpace=wrap;html=1;absoluteArcSize=1;arcSize=14;strokeWidth=2;" vertex="1" parent="5PBlycJL5ER1Ycoqp78R-1">
                    <mxGeometry x="370" y="350" width="100" height="50" as="geometry"/>
                </mxCell>
                <mxCell id="5PBlycJL5ER1Ycoqp78R-8" value="" style="verticalLabelPosition=bottom;verticalAlign=top;html=1;shape=mxgraph.flowchart.parallel_mode;pointerEvents=1;rotation=90;" vertex="1" parent="5PBlycJL5ER1Ycoqp78R-1">
                    <mxGeometry x="150" y="220.32" width="345" height="9.37" as="geometry"/>
                </mxCell>
                <mxCell id="5PBlycJL5ER1Ycoqp78R-9" style="edgeStyle=none;html=1;entryX=0;entryY=0.5;entryDx=0;entryDy=0;exitX=0.935;exitY=0.005;exitDx=0;exitDy=0;exitPerimeter=0;" edge="1" parent="5PBlycJL5ER1Ycoqp78R-1" source="5PBlycJL5ER1Ycoqp78R-8" target="5PBlycJL5ER1Ycoqp78R-6">
                    <mxGeometry relative="1" as="geometry">
                        <mxPoint x="360" y="375" as="sourcePoint"/>
                        <mxPoint x="316.98" y="384.03999999999996" as="targetPoint"/>
                    </mxGeometry>
                </mxCell>
                <mxCell id="5PBlycJL5ER1Ycoqp78R-23" style="edgeStyle=none;html=1;entryX=0.677;entryY=1.133;entryDx=0;entryDy=0;entryPerimeter=0;" edge="1" parent="5PBlycJL5ER1Ycoqp78R-1" source="5PBlycJL5ER1Ycoqp78R-10" target="5PBlycJL5ER1Ycoqp78R-21">
                    <mxGeometry relative="1" as="geometry"/>
                </mxCell>
                <mxCell id="5PBlycJL5ER1Ycoqp78R-10" value="模板填充，生成node config" style="rounded=1;whiteSpace=wrap;html=1;absoluteArcSize=1;arcSize=14;strokeWidth=2;" vertex="1" parent="5PBlycJL5ER1Ycoqp78R-1">
                    <mxGeometry x="370" y="260" width="100" height="50" as="geometry"/>
                </mxCell>
                <mxCell id="5PBlycJL5ER1Ycoqp78R-16" style="edgeStyle=none;html=1;entryX=0.5;entryY=0;entryDx=0;entryDy=0;" edge="1" parent="5PBlycJL5ER1Ycoqp78R-1" source="5PBlycJL5ER1Ycoqp78R-12" target="5PBlycJL5ER1Ycoqp78R-15">
                    <mxGeometry relative="1" as="geometry"/>
                </mxCell>
                <mxCell id="5PBlycJL5ER1Ycoqp78R-12" value="生成topicInfo总表" style="rounded=1;whiteSpace=wrap;html=1;absoluteArcSize=1;arcSize=14;strokeWidth=2;" vertex="1" parent="5PBlycJL5ER1Ycoqp78R-1">
                    <mxGeometry x="370" y="50" width="100" height="50" as="geometry"/>
                </mxCell>
                <mxCell id="5PBlycJL5ER1Ycoqp78R-13" style="edgeStyle=none;html=1;entryX=0;entryY=0.5;entryDx=0;entryDy=0;exitX=0.064;exitY=0.023;exitDx=0;exitDy=0;exitPerimeter=0;" edge="1" parent="5PBlycJL5ER1Ycoqp78R-1" source="5PBlycJL5ER1Ycoqp78R-8" target="5PBlycJL5ER1Ycoqp78R-12">
                    <mxGeometry relative="1" as="geometry">
                        <mxPoint x="290" y="384.3764614185502" as="sourcePoint"/>
                        <mxPoint x="316.98" y="384.03999999999996" as="targetPoint"/>
                    </mxGeometry>
                </mxCell>
                <mxCell id="5PBlycJL5ER1Ycoqp78R-22" style="edgeStyle=none;html=1;entryX=0.354;entryY=1.226;entryDx=0;entryDy=0;entryPerimeter=0;" edge="1" parent="5PBlycJL5ER1Ycoqp78R-1" source="5PBlycJL5ER1Ycoqp78R-15" target="5PBlycJL5ER1Ycoqp78R-21">
                    <mxGeometry relative="1" as="geometry"/>
                </mxCell>
                <mxCell id="5PBlycJL5ER1Ycoqp78R-15" value="分发topicInfo到各集群" style="rounded=1;whiteSpace=wrap;html=1;absoluteArcSize=1;arcSize=14;strokeWidth=2;" vertex="1" parent="5PBlycJL5ER1Ycoqp78R-1">
                    <mxGeometry x="370" y="150" width="100" height="50" as="geometry"/>
                </mxCell>
                <mxCell id="5PBlycJL5ER1Ycoqp78R-21" value="" style="verticalLabelPosition=bottom;verticalAlign=top;html=1;shape=mxgraph.flowchart.parallel_mode;pointerEvents=1;rotation=90;" vertex="1" parent="5PBlycJL5ER1Ycoqp78R-1">
                    <mxGeometry x="350" y="220.32" width="345" height="9.37" as="geometry"/>
                </mxCell>
                <mxCell id="5PBlycJL5ER1Ycoqp78R-24" style="edgeStyle=none;html=1;exitX=0.068;exitY=-0.081;exitDx=0;exitDy=0;exitPerimeter=0;entryX=0;entryY=0.5;entryDx=0;entryDy=0;" edge="1" parent="5PBlycJL5ER1Ycoqp78R-1" source="5PBlycJL5ER1Ycoqp78R-21" target="5PBlycJL5ER1Ycoqp78R-25">
                    <mxGeometry relative="1" as="geometry">
                        <mxPoint x="530" y="80.17929467452495" as="sourcePoint"/>
                        <mxPoint x="560" y="80" as="targetPoint"/>
                    </mxGeometry>
                </mxCell>
                <mxCell id="5PBlycJL5ER1Ycoqp78R-28" style="edgeStyle=none;html=1;entryX=0.5;entryY=0;entryDx=0;entryDy=0;" edge="1" parent="5PBlycJL5ER1Ycoqp78R-1" source="5PBlycJL5ER1Ycoqp78R-25" target="5PBlycJL5ER1Ycoqp78R-27">
                    <mxGeometry relative="1" as="geometry"/>
                </mxCell>
                <mxCell id="5PBlycJL5ER1Ycoqp78R-25" value="打包配置文件、topicInfo总表、部署信息表" style="rounded=1;whiteSpace=wrap;html=1;absoluteArcSize=1;arcSize=14;strokeWidth=2;" vertex="1" parent="5PBlycJL5ER1Ycoqp78R-1">
                    <mxGeometry x="580" y="50" width="100" height="50" as="geometry"/>
                </mxCell>
                <mxCell id="5PBlycJL5ER1Ycoqp78R-30" style="edgeStyle=none;html=1;entryX=0.5;entryY=0;entryDx=0;entryDy=0;entryPerimeter=0;" edge="1" parent="5PBlycJL5ER1Ycoqp78R-1" source="5PBlycJL5ER1Ycoqp78R-27" target="5PBlycJL5ER1Ycoqp78R-29">
                    <mxGeometry relative="1" as="geometry"/>
                </mxCell>
                <mxCell id="5PBlycJL5ER1Ycoqp78R-27" value="返回生成结果" style="rounded=1;whiteSpace=wrap;html=1;absoluteArcSize=1;arcSize=14;strokeWidth=2;" vertex="1" parent="5PBlycJL5ER1Ycoqp78R-1">
                    <mxGeometry x="580" y="150" width="100" height="50" as="geometry"/>
                </mxCell>
                <mxCell id="5PBlycJL5ER1Ycoqp78R-29" value="结束" style="strokeWidth=2;html=1;shape=mxgraph.flowchart.terminator;whiteSpace=wrap;" vertex="1" parent="5PBlycJL5ER1Ycoqp78R-1">
                    <mxGeometry x="580" y="260" width="100" height="50" as="geometry"/>
                </mxCell>
            </root>
        </mxGraphModel>
    </diagram>
</mxfile>